<svg xmlns="http://www.w3.org/2000/svg" width="64" height="61.891" viewBox="0 0 64 61.891">
  <g id="_x35_" transform="translate(-2 -3.055)">
    <g id="Group_534" data-name="Group 534">
      <g id="Group_490" data-name="Group 490">
        <g id="Group_480" data-name="Group 480">
          <g id="Group_479" data-name="Group 479">
            <path id="Path_568" data-name="Path 568" d="M63.582,36.265l-41.2,22.677A4.669,4.669,0,0,1,16.036,57.1L3.479,34.287a4.669,4.669,0,0,1,1.839-6.341l41.2-22.677a4.669,4.669,0,0,1,6.341,1.839L65.421,29.924a4.669,4.669,0,0,1-1.839,6.341Z" fill="#febc1f"/>
          </g>
        </g>
        <g id="Group_482" data-name="Group 482">
          <g id="Group_481" data-name="Group 481">
            <path id="Path_569" data-name="Path 569" d="M62.682,34.63l-41.2,22.677a4.669,4.669,0,0,1-6.341-1.839L2.579,32.652a4.669,4.669,0,0,1,1.839-6.341l41.2-22.677a4.669,4.669,0,0,1,6.341,1.839L64.521,28.289a4.669,4.669,0,0,1-1.839,6.341Z" fill="#ffd475"/>
          </g>
        </g>
        <g id="Group_485" data-name="Group 485">
          <g id="Group_484" data-name="Group 484">
            <g id="Group_483" data-name="Group 483">
              <path id="Path_570" data-name="Path 570" d="M45.623,3.634,4.419,26.311a4.669,4.669,0,0,0-1.839,6.341L15.136,55.468s-11.7-22.376,34.653-52a4.656,4.656,0,0,0-4.166.162Z" fill="#febc1f"/>
            </g>
          </g>
        </g>
        <g id="Group_487" data-name="Group 487">
          <g id="Group_486" data-name="Group 486">
            <path id="Path_571" data-name="Path 571" d="M6.27,35.45l1.577,2.865a1.493,1.493,0,0,0,2.027.588L53.342,14.98a1.493,1.493,0,0,0,.588-2.027l-1.577-2.865A1.493,1.493,0,0,0,50.326,9.5L6.858,33.423A1.493,1.493,0,0,0,6.27,35.45Z" fill="#1d2943"/>
          </g>
        </g>
        <g id="Group_489" data-name="Group 489">
          <g id="Group_488" data-name="Group 488">
            <path id="Path_572" data-name="Path 572" d="M5.833,34.656,7.41,37.521a1.493,1.493,0,0,0,2.027.588L52.9,14.186a1.493,1.493,0,0,0,.588-2.027L51.916,9.294a1.493,1.493,0,0,0-2.027-.588L6.421,32.629a1.493,1.493,0,0,0-.588,2.027Z" fill="#4c5c75"/>
          </g>
        </g>
      </g>
      <g id="Group_492" data-name="Group 492">
        <g id="Group_491" data-name="Group 491">
          <path id="Path_573" data-name="Path 573" d="M56.131,64.945H9.1A4.669,4.669,0,0,1,4.43,60.277V34.234A4.669,4.669,0,0,1,9.1,29.566H56.131A4.669,4.669,0,0,1,60.8,34.234V60.277A4.669,4.669,0,0,1,56.131,64.945Z" fill="#5094ff"/>
        </g>
      </g>
      <g id="Group_494" data-name="Group 494">
        <g id="Group_493" data-name="Group 493">
          <path id="Path_574" data-name="Path 574" d="M9.1,63.079H56.131A4.669,4.669,0,0,0,60.8,58.41V32.368A4.669,4.669,0,0,0,56.131,27.7H9.1A4.669,4.669,0,0,0,4.43,32.368V58.41A4.669,4.669,0,0,0,9.1,63.079Z" fill="#57b3fe"/>
        </g>
      </g>
      <g id="Group_497" data-name="Group 497">
        <g id="Group_496" data-name="Group 496">
          <g id="Group_495" data-name="Group 495">
            <path id="Path_575" data-name="Path 575" d="M9.1,27.7H56.131A4.669,4.669,0,0,1,60.8,32.368V58.41S60.262,33.166,5.371,29.566A4.656,4.656,0,0,1,9.1,27.7Z" fill="#5094ff"/>
          </g>
        </g>
      </g>
      <g id="Group_518" data-name="Group 518">
        <g id="Group_502" data-name="Group 502">
          <g id="Group_499" data-name="Group 499">
            <g id="Group_498" data-name="Group 498">
              <path id="Path_576" data-name="Path 576" d="M57.142,54.7v.725h-.01a1.791,1.791,0,0,1-1.784,1.8H50.611a1.793,1.793,0,0,1-1.784-1.8h-.01V54.7h.116a1.994,1.994,0,0,1,1.842-1.186h4.409A1.994,1.994,0,0,1,57.026,54.7Z" fill="#e3e7f0"/>
            </g>
          </g>
          <g id="Group_501" data-name="Group 501">
            <g id="Group_500" data-name="Group 500">
              <path id="Path_577" data-name="Path 577" d="M55.343,56.508H50.764a1.9,1.9,0,0,1-1.924-1.54A1.8,1.8,0,0,1,50.625,52.9h4.561a1.9,1.9,0,0,1,1.949,1.686,1.8,1.8,0,0,1-1.792,1.92Z" fill="#fff"/>
            </g>
          </g>
        </g>
        <g id="Group_507" data-name="Group 507">
          <g id="Group_504" data-name="Group 504">
            <g id="Group_503" data-name="Group 503">
              <path id="Path_578" data-name="Path 578" d="M43.565,54.7v.725h-.01a1.791,1.791,0,0,1-1.784,1.8H37.035a1.793,1.793,0,0,1-1.784-1.8h-.01V54.7h.116A1.994,1.994,0,0,1,37.2,53.514h4.409A1.994,1.994,0,0,1,43.449,54.7Z" fill="#e3e7f0"/>
            </g>
          </g>
          <g id="Group_506" data-name="Group 506">
            <g id="Group_505" data-name="Group 505">
              <path id="Path_579" data-name="Path 579" d="M41.767,56.508H37.188a1.9,1.9,0,0,1-1.924-1.54A1.8,1.8,0,0,1,37.048,52.9h4.561a1.9,1.9,0,0,1,1.949,1.686,1.8,1.8,0,0,1-1.792,1.92Z" fill="#fff"/>
            </g>
          </g>
        </g>
        <g id="Group_512" data-name="Group 512">
          <g id="Group_509" data-name="Group 509">
            <g id="Group_508" data-name="Group 508">
              <path id="Path_580" data-name="Path 580" d="M29.989,54.7v.725h-.01a1.791,1.791,0,0,1-1.784,1.8H23.458a1.793,1.793,0,0,1-1.784-1.8h-.01V54.7h.116a1.994,1.994,0,0,1,1.842-1.186h4.409A1.994,1.994,0,0,1,29.873,54.7Z" fill="#e3e7f0"/>
            </g>
          </g>
          <g id="Group_511" data-name="Group 511">
            <g id="Group_510" data-name="Group 510">
              <path id="Path_581" data-name="Path 581" d="M28.19,56.508H23.611a1.9,1.9,0,0,1-1.924-1.54A1.8,1.8,0,0,1,23.472,52.9h4.561a1.9,1.9,0,0,1,1.949,1.686,1.8,1.8,0,0,1-1.792,1.92Z" fill="#fff"/>
            </g>
          </g>
        </g>
        <g id="Group_517" data-name="Group 517">
          <g id="Group_514" data-name="Group 514">
            <g id="Group_513" data-name="Group 513">
              <path id="Path_582" data-name="Path 582" d="M16.412,54.7v.725H16.4a1.791,1.791,0,0,1-1.784,1.8H9.882a1.793,1.793,0,0,1-1.784-1.8h-.01V54.7H8.2a1.994,1.994,0,0,1,1.842-1.186h4.409A1.994,1.994,0,0,1,16.3,54.7Z" fill="#e3e7f0"/>
            </g>
          </g>
          <g id="Group_516" data-name="Group 516">
            <g id="Group_515" data-name="Group 515">
              <path id="Path_583" data-name="Path 583" d="M14.614,56.508H10.035a1.9,1.9,0,0,1-1.924-1.54A1.8,1.8,0,0,1,9.9,52.9h4.561a1.9,1.9,0,0,1,1.949,1.686,1.8,1.8,0,0,1-1.792,1.92Z" fill="#fff"/>
            </g>
          </g>
        </g>
      </g>
      <g id="Group_523" data-name="Group 523">
        <g id="Group_520" data-name="Group 520">
          <g id="Group_519" data-name="Group 519">
            <path id="Path_584" data-name="Path 584" d="M8.092,35.926v4.356A1.988,1.988,0,0,0,10.08,42.27h8.157a1.988,1.988,0,0,0,1.988-1.988V35.926a1.988,1.988,0,0,0-1.988-1.988H10.08a1.988,1.988,0,0,0-1.988,1.988Z" fill="#febc1f"/>
          </g>
        </g>
        <g id="Group_522" data-name="Group 522">
          <g id="Group_521" data-name="Group 521">
            <path id="Path_585" data-name="Path 585" d="M8.092,35.247V39.6a1.988,1.988,0,0,0,1.988,1.988h8.157A1.988,1.988,0,0,0,20.226,39.6V35.247a1.988,1.988,0,0,0-1.988-1.988H10.08a1.988,1.988,0,0,0-1.988,1.988Z" fill="#ffd475"/>
          </g>
        </g>
      </g>
      <g id="Group_526" data-name="Group 526">
        <g id="Group_525" data-name="Group 525">
          <g id="Group_524" data-name="Group 524">
            <path id="Path_586" data-name="Path 586" d="M13.948,36.955v-3.7H13v3.7H8.092V37.9h2.687v3.692h.944V37.9h4.252v3.692h.944V37.9h3.306v-.944Z" fill="#febc1f"/>
          </g>
        </g>
      </g>
      <g id="Group_533" data-name="Group 533">
        <g id="Group_529" data-name="Group 529">
          <g id="Group_528" data-name="Group 528">
            <g id="Group_527" data-name="Group 527">
              <path id="Path_587" data-name="Path 587" d="M56.28,40.216H50.962a.913.913,0,0,1-.924-.739.867.867,0,0,1,.857-.992H56.2a.914.914,0,0,1,.936.81.863.863,0,0,1-.86.922Z" fill="#fff"/>
            </g>
          </g>
        </g>
        <g id="Group_532" data-name="Group 532">
          <g id="Group_531" data-name="Group 531">
            <g id="Group_530" data-name="Group 530">
              <path id="Path_588" data-name="Path 588" d="M56.28,36.509H46.944a.913.913,0,0,1-.924-.739.867.867,0,0,1,.857-.992H56.2a.914.914,0,0,1,.936.81A.863.863,0,0,1,56.28,36.509Z" fill="#fff"/>
            </g>
          </g>
        </g>
      </g>
    </g>
    <g id="Group_536" data-name="Group 536">
      <g id="Group_535" data-name="Group 535">
        <path id="Path_589" data-name="Path 589" d="M54.861,16.32a40.292,40.292,0,0,1,5.431,9.289A40.28,40.28,0,0,1,54.861,16.32Z" fill="#fff"/>
      </g>
    </g>
    <g id="Group_538" data-name="Group 538">
      <g id="Group_537" data-name="Group 537">
        <path id="Path_590" data-name="Path 590" d="M13.444,25.608a51.377,51.377,0,0,1,10.457-6.2,51.383,51.383,0,0,1-10.457,6.2Z" fill="#fff"/>
      </g>
    </g>
    <g id="Group_540" data-name="Group 540">
      <g id="Group_539" data-name="Group 539">
        <path id="Path_591" data-name="Path 591" d="M40.192,60.735a51.381,51.381,0,0,1,12.157,0A51.373,51.373,0,0,1,40.192,60.735Z" fill="#fff"/>
      </g>
    </g>
  </g>
</svg>
