<svg id="Multi-device_targeting-pana" data-name="Multi-device targeting-pana" xmlns="http://www.w3.org/2000/svg" width="182.757" height="152.559" viewBox="0 0 182.757 152.559">
  <g id="freepik--background-complete--inject-29" transform="translate(0 -6)">
    <path id="Path_638" data-name="Path 638" d="M692.133,315.948s-2.688-1.588-5.549,4.792a81.4,81.4,0,0,0-3.886,10.03s-.776,1.342-1.713.534-2.285-3.162-3.784-2.651-1.987,2.322-1.56,4.889,1.166,8.251,1.23,8.762-.19,1.263-.929.817-5-4.75-6.914-2.6.464,9.124.7,9.89.111,1.105-.251,1.319-1.658-1.37-2.921-2.545-2.939-2.322-3.942-.984-1.082,6.659,4.4,15.031l2.786,3.715,4.643-.492c9.872-1.648,13.73-5.321,14.028-6.965s-1.676-2.1-3.394-2.229-3.766,0-3.854-.423.07-.738.8-1.077,7.467-3.329,7.74-6.194-5.781-3.088-6.6-3.315-.437-.929,0-1.23,5.108-3.608,7.272-5.038,3.2-2.962,2.535-4.467-3.288-.836-4.518-.98-.766-1.621-.766-1.621a81.051,81.051,0,0,0,4.736-9.658c2.749-6.431-.325-7.336-.325-7.336" transform="translate(-534.371 -209.445)" fill="#ebebeb"/>
    <path id="Path_646" data-name="Path 646" d="M142.7,144.087s-2.911,1.133.344,7.323a80.715,80.715,0,0,0,5.488,9.236s.58,1.439-.632,1.681-3.9-.158-4.425,1.337.58,3.018,2.9,4.263,7.211,4.179,7.652,4.439.878.929.074,1.226-6.84.984-6.334,3.835,7.457,5.275,8.209,5.572.929.6.882,1.012-2.1.464-3.808.729-3.631.878-3.2,2.493,4.569,4.959,14.538,5.818l4.643.093,2.48-3.952c4.792-8.785,4.286-14.088,3.181-15.323s-2.684.023-3.849,1.3-2.322,2.953-2.712,2.786-.539-.511-.353-1.3,1.992-7.926-.1-9.914-5.995,2.647-6.686,3.153-1-.232-.98-.743.3-6.231.525-8.822-.353-4.346-1.946-4.75-2.688,2.066-3.561,2.949-1.751-.4-1.751-.4a80.257,80.257,0,0,0-4.676-9.686c-3.366-6.129-5.944-4.328-5.944-4.328" transform="translate(-121.158 -35.649)" fill="#ebebeb"/>
    <path id="Path_647" data-name="Path 647" d="M174.016,200.871c-2.452-4.513-6.677-12.607-10.341-19.535s-6.965-13.2-9.412-17.719l-2.883-5.354-.785-1.458-.2-.381c-.046-.088-.065-.135-.065-.135l.079.125.214.376.8,1.444c.7,1.254,1.7,3.074,2.925,5.331,2.452,4.513,5.79,10.777,9.449,17.7s7.894,15.031,10.308,19.553" transform="translate(-150.33 -124.016)" fill="#e0e0e0"/>
    <path id="Path_648" data-name="Path 648" d="M153.79,188.05a1.318,1.318,0,0,1,.325.084l.868.293c.724.26,1.723.641,2.814,1.082l2.786,1.133.85.339a1.958,1.958,0,0,1,.306.139,1.653,1.653,0,0,1-.325-.084c-.209-.065-.506-.167-.868-.3-.724-.265-1.713-.659-2.786-1.1l-2.786-1.114-.85-.334A1.716,1.716,0,0,1,153.79,188.05Z" transform="translate(-152.183 -141.029)" fill="#e0e0e0"/>
    <path id="Path_649" data-name="Path 649" d="M171.588,183.313c-.037,0,.659-2.1,1.556-4.643s1.648-4.643,1.686-4.62-.655,2.1-1.551,4.643S171.625,183.313,171.588,183.313Z" transform="translate(-161.717 -133.53)" fill="#e0e0e0"/>
    <path id="Path_650" data-name="Path 650" d="M182.67,209.071a2.227,2.227,0,0,1,.186-.288l.543-.762c.464-.641,1.082-1.528,1.737-2.535s1.221-1.936,1.621-2.61c.19-.32.348-.59.464-.8a1.709,1.709,0,0,1,.19-.283,1.525,1.525,0,0,1-.139.311c-.1.2-.251.464-.464.827-.381.687-.929,1.63-1.588,2.637s-1.3,1.89-1.774,2.517c-.241.316-.441.566-.58.734A1.393,1.393,0,0,1,182.67,209.071Z" transform="translate(-167.653 -148.389)" fill="#e0e0e0"/>
    <path id="Path_651" data-name="Path 651" d="M165.38,215.61a1.442,1.442,0,0,1,.32,0l.859.06c.724.056,1.727.139,2.832.246s2.108.2,2.828.288l.859.1a1.535,1.535,0,0,1,.311.056,1.39,1.39,0,0,1-.316,0l-.864-.06c-.724-.051-1.727-.139-2.832-.241s-2.1-.209-2.828-.288l-.854-.107A1.223,1.223,0,0,1,165.38,215.61Z" transform="translate(-158.392 -155.787)" fill="#e0e0e0"/>
    <path id="Path_652" data-name="Path 652" d="M172.53,237.56a2.5,2.5,0,0,1,.409,0l1.1.07c.929.065,2.215.162,3.636.283s2.7.237,3.631.33l1.1.116a2.143,2.143,0,0,1,.4.06,2.121,2.121,0,0,1-.409,0l-1.1-.07c-.929-.065-2.215-.167-3.636-.288s-2.7-.237-3.626-.325l-1.1-.116A2.354,2.354,0,0,1,172.53,237.56Z" transform="translate(-162.222 -167.546)" fill="#e0e0e0"/>
    <path id="Path_653" data-name="Path 653" d="M194.14,228.4a2.477,2.477,0,0,1,.228-.371l.65-.989c.548-.836,1.3-1.987,2.1-3.287s1.491-2.494,1.983-3.362c.241-.413.436-.762.59-1.026a2.488,2.488,0,0,1,.228-.367,2.442,2.442,0,0,1-.181.395c-.121.251-.306.608-.543,1.049-.464.882-1.152,2.085-1.95,3.385s-1.569,2.452-2.141,3.25c-.288.413-.52.738-.687.966a2.427,2.427,0,0,1-.274.358Z" transform="translate(-173.797 -157.608)" fill="#e0e0e0"/>
    <path id="Path_655" data-name="Path 655" d="M501.708,45.02a12.323,12.323,0,0,1,2.981-1.3l.622-2.972,5.015-.084.743,2.944a12.341,12.341,0,0,1,3.041,1.2l2.54-1.662,3.608,3.487-1.569,2.591a12.424,12.424,0,0,1,1.323,3l2.967.622.088,5.015-2.944.724a12.344,12.344,0,0,1-1.2,3.041l1.662,2.54-3.506,3.589-2.591-1.569a12.26,12.26,0,0,1-3,1.3l-.618,2.972-5.02.088-.7-2.93a12.18,12.18,0,0,1-3.046-1.193l-2.535,1.662-3.613-3.487,1.574-2.6a12.171,12.171,0,0,1-1.3-3l-2.967-.618-.111-5.024,2.944-.72a12.378,12.378,0,0,1,1.2-3.046l-1.662-2.535,3.487-3.608Zm2.675,6.686a5.382,5.382,0,1,0,3.78-1.646A5.382,5.382,0,0,0,504.382,51.707Z" transform="translate(-421.959 -34.66)" fill="#f5f5f5"/>
    <path id="Path_656" data-name="Path 656" d="M638.888,142.915a7.73,7.73,0,0,1,1.89-.822l.39-1.857,3.167-.056.464,1.857a7.97,7.97,0,0,1,1.918.757l1.6-1.049,2.275,2.2-.994,1.634a7.731,7.731,0,0,1,.822,1.89l1.857.39.056,3.167-1.857.464a7.9,7.9,0,0,1-.757,1.918l1.049,1.6-2.168,2.266-1.635-.989a8.1,8.1,0,0,1-1.89.822l-.39,1.857-3.167.056-.464-1.857a7.707,7.707,0,0,1-1.918-.757l-1.6,1.049-2.275-2.2.994-1.634a7.648,7.648,0,0,1-.822-1.89l-1.857-.39-.056-3.162,1.857-.464a7.966,7.966,0,0,1,.757-1.918l-1.049-1.6,2.2-2.28,1.634.994Zm1.686,4.216a3.394,3.394,0,1,0,4.8-.088A3.394,3.394,0,0,0,640.573,147.131Z" transform="translate(-490.073 -110.467)" fill="#f5f5f5"/>
    <path id="Path_657" data-name="Path 657" d="M62.069,109.1a15.087,15.087,0,0,1,3.678-1.6l.757-3.631,6.162-.116.887,3.613a15.013,15.013,0,0,1,3.715,1.467l3.111-2.038,4.43,4.277-1.927,3.181a14.91,14.91,0,0,1,1.6,3.678l3.64.757.107,6.157-3.613.882a15.011,15.011,0,0,1-1.467,3.715l2.038,3.111-4.277,4.43-3.176-1.927a15.179,15.179,0,0,1-3.682,1.6l-.757,3.64-6.152.107-.887-3.613a14.905,14.905,0,0,1-3.715-1.467l-3.111,2.038-4.439-4.235,1.927-3.176a15.016,15.016,0,0,1-1.6-3.682l-3.64-.757-.107-6.152,3.613-.887a15.082,15.082,0,0,1,1.467-3.715l-2.038-3.111,4.277-4.425,3.181,1.927Zm3.278,8.2a6.6,6.6,0,1,0,9.333-.163A6.6,6.6,0,0,0,65.347,117.295Z" transform="translate(-39.681 -58.598)" fill="#f5f5f5"/>
    <path id="Path_658" data-name="Path 658" d="M640.122,201.66a12.424,12.424,0,0,1,3-1.3l.618-2.967,5.02-.088.724,2.944a12.342,12.342,0,0,1,3.042,1.2l2.535-1.662,3.613,3.487-1.574,2.591a12.109,12.109,0,0,1,1.3,3l2.972.618.088,5.015-2.949.724a12.08,12.08,0,0,1-1.2,3.046l1.662,2.535-3.483,3.608-2.6-1.569a12.425,12.425,0,0,1-3,1.3l-.618,2.967-5.019.088-.72-2.944a12.371,12.371,0,0,1-3.046-1.2l-2.535,1.662-3.612-3.487,1.574-2.591a12.278,12.278,0,0,1-1.3-3l-2.972-.618L631.56,210l2.948-.724a12.446,12.446,0,0,1,1.2-3.046l-1.662-2.535,3.487-3.608Zm2.675,6.686a5.383,5.383,0,1,0,3.782-1.646,5.382,5.382,0,0,0-3.782,1.646Z" transform="translate(-478.706 -130.452)" fill="#ebebeb"/>
  </g>
  <g id="freepik--Target--inject-29" transform="translate(30.96 19.999)">
    <circle id="Ellipse_102" data-name="Ellipse 102" cx="57.144" cy="57.144" r="57.144" transform="translate(2.654 18.272)" fill="#002e6d"/>
    <circle id="Ellipse_103" data-name="Ellipse 103" cx="57.144" cy="57.144" r="57.144" transform="translate(2.654 18.272)" opacity="0.3"/>
    <circle id="Ellipse_104" data-name="Ellipse 104" cx="57.144" cy="57.144" r="57.144" transform="translate(1.113 14.616)" fill="#002e6d"/>
    <circle id="Ellipse_105" data-name="Ellipse 105" cx="44.454" cy="44.454" r="44.454" transform="matrix(0.921, -0.389, 0.389, 0.921, 0, 48.142)" fill="#fff"/>
    <circle id="Ellipse_106" data-name="Ellipse 106" cx="31.281" cy="31.281" r="31.281" transform="translate(14.015 71.761) rotate(-45)" fill="#002e6d"/>
    <circle id="Ellipse_107" data-name="Ellipse 107" cx="16.501" cy="16.501" r="16.501" transform="matrix(0.917, -0.398, 0.398, 0.917, 36.553, 63.19)" fill="#fff"/>
    <path id="Path_687" data-name="Path 687" d="M297.2,72.107l-1.557-12.19L308.051,46.63l.894,13.165Z" transform="translate(-194.723 -46.63)" fill="#455a64"/>
    <path id="Path_688" data-name="Path 688" d="M324.487,65.655,311.9,64.63,299.28,76.77,311.9,78.115Z" transform="translate(-195.38 -49.875)" fill="#455a64"/>
    <path id="Path_689" data-name="Path 689" d="M243.6,126.327l46.914-33.609a63.186,63.186,0,0,0-5.951-7.378L244.4,124.2Z" transform="translate(-185.343 -53.608)" opacity="0.3"/>
    <path id="Path_690" data-name="Path 690" d="M301.034,59.48l-5.853,5.968L281.008,79.776,263.982,96.991q-7.378,7.5-14.8,14.993c-2.394,2.459-4.918,4.787-7.206,7.3l-.107.107c-1.385,1.41.82,3.582,2.18,2.172l5.886-5.968,14.14-14.321,17.026-17.215q7.378-7.5,14.8-14.993c2.394-2.459,4.918-4.787,7.206-7.3l.1-.1C304.6,60.25,302.386,58.07,301.034,59.48Z" transform="translate(-184.952 -48.864)" fill="#263238"/>
  </g>
</svg>
