<svg id="next" xmlns="http://www.w3.org/2000/svg" width="70" height="70" viewBox="0 0 70 70">
  <g id="Group_569" data-name="Group 569">
    <g id="Group_568" data-name="Group 568">
      <path id="Path_636" data-name="Path 636" d="M35,0A35,35,0,1,1,0,35,35,35,0,0,1,35,0Zm0,64.167A29.167,29.167,0,1,0,5.833,35,29.167,29.167,0,0,0,35,64.167Z" fill="#002e6d"/>
      <path id="Path_637" data-name="Path 637" d="M207.437,128.854a2.917,2.917,0,1,1,4.125,4.125L199.041,145.5l12.521,12.521a2.917,2.917,0,1,1-4.125,4.125l-14.583-14.583a2.917,2.917,0,0,1,0-4.125Z" transform="translate(-168.666 -110.5)" fill="#002e6d"/>
    </g>
  </g>
</svg>
