<svg xmlns="http://www.w3.org/2000/svg" xmlns:xlink="http://www.w3.org/1999/xlink" width="1920" height="396" viewBox="0 0 1920 396">
  <defs>
    <clipPath id="clip-path">
      <rect id="Rectangle_102" data-name="Rectangle 102" width="1920" height="396" transform="translate(0 2897)" fill="#002e6d"/>
    </clipPath>
    <clipPath id="clip-path-2">
      <rect id="Rectangle_101" data-name="Rectangle 101" width="1920" height="795" transform="translate(0 1668)" fill="#fff"/>
    </clipPath>
  </defs>
  <g id="Group_317" data-name="Group 317" transform="translate(0 -2897)">
    <rect id="Rectangle_103" data-name="Rectangle 103" width="1920" height="396" transform="translate(0 2897)" fill="#002e6d"/>
    <g id="Mask_Group_3" data-name="Mask Group 3" clip-path="url(#clip-path)">
      <g id="Mask_Group_2" data-name="Mask Group 2" transform="translate(-79 897)" opacity="0.08" clip-path="url(#clip-path-2)">
        <g id="Group_204" data-name="Group 204" transform="translate(1782.829 1766)">
          <g id="Group_203" data-name="Group 203">
            <g id="Group_196" data-name="Group 196" transform="translate(0 84.227)">
              <g id="Group_195" data-name="Group 195">
                <g id="Group_191" data-name="Group 191">
                  <circle id="Ellipse_42" data-name="Ellipse 42" cx="2.655" cy="2.655" r="2.655" transform="translate(68.449)" fill="#fff"/>
                  <path id="Path_285" data-name="Path 285" d="M1019.119,388.9a2.655,2.655,0,1,0,2.655-2.655A2.655,2.655,0,0,0,1019.119,388.9Z" transform="translate(-973.486 -386.244)" fill="#fff"/>
                  <circle id="Ellipse_43" data-name="Ellipse 43" cx="2.655" cy="2.655" r="2.655" transform="translate(22.817)" fill="#fff"/>
                  <path id="Path_286" data-name="Path 286" d="M1074.781,388.9a2.655,2.655,0,1,0,2.655-2.655A2.655,2.655,0,0,0,1074.781,388.9Z" transform="translate(-1074.781 -386.244)" fill="#fff"/>
                </g>
                <g id="Group_192" data-name="Group 192" transform="translate(0 21.638)">
                  <path id="Path_287" data-name="Path 287" d="M991.288,415.292a2.655,2.655,0,1,0,2.655-2.655A2.655,2.655,0,0,0,991.288,415.292Z" transform="translate(-922.839 -412.637)" fill="#fff"/>
                  <path id="Path_288" data-name="Path 288" d="M1019.119,415.292a2.655,2.655,0,1,0,2.655-2.655A2.655,2.655,0,0,0,1019.119,415.292Z" transform="translate(-973.486 -412.637)" fill="#fff"/>
                  <path id="Path_289" data-name="Path 289" d="M1046.95,415.292a2.655,2.655,0,1,0,2.655-2.655A2.655,2.655,0,0,0,1046.95,415.292Z" transform="translate(-1024.134 -412.637)" fill="#fff"/>
                  <path id="Path_290" data-name="Path 290" d="M1074.781,415.292a2.655,2.655,0,1,0,2.655-2.655A2.655,2.655,0,0,0,1074.781,415.292Z" transform="translate(-1074.781 -412.637)" fill="#fff"/>
                </g>
                <g id="Group_193" data-name="Group 193" transform="translate(0 43.276)">
                  <circle id="Ellipse_44" data-name="Ellipse 44" cx="2.655" cy="2.655" r="2.655" transform="translate(68.449 0)" fill="#fff"/>
                  <path id="Path_291" data-name="Path 291" d="M1019.119,441.686a2.655,2.655,0,1,0,2.655-2.655A2.655,2.655,0,0,0,1019.119,441.686Z" transform="translate(-973.486 -439.031)" fill="#fff"/>
                  <circle id="Ellipse_45" data-name="Ellipse 45" cx="2.655" cy="2.655" r="2.655" transform="translate(22.817 0)" fill="#fff"/>
                  <path id="Path_292" data-name="Path 292" d="M1074.781,441.686a2.655,2.655,0,1,0,2.655-2.655A2.655,2.655,0,0,0,1074.781,441.686Z" transform="translate(-1074.781 -439.031)" fill="#fff"/>
                </g>
                <g id="Group_194" data-name="Group 194" transform="translate(0 64.914)">
                  <path id="Path_293" data-name="Path 293" d="M991.288,468.08a2.655,2.655,0,1,0,2.655-2.655A2.655,2.655,0,0,0,991.288,468.08Z" transform="translate(-922.839 -465.425)" fill="#fff"/>
                  <path id="Path_294" data-name="Path 294" d="M1019.119,468.08a2.655,2.655,0,1,0,2.655-2.655A2.655,2.655,0,0,0,1019.119,468.08Z" transform="translate(-973.486 -465.425)" fill="#fff"/>
                  <path id="Path_295" data-name="Path 295" d="M1046.95,468.08a2.655,2.655,0,1,0,2.655-2.655A2.655,2.655,0,0,0,1046.95,468.08Z" transform="translate(-1024.134 -465.425)" fill="#fff"/>
                  <path id="Path_296" data-name="Path 296" d="M1074.781,468.08a2.655,2.655,0,1,0,2.655-2.655A2.655,2.655,0,0,0,1074.781,468.08Z" transform="translate(-1074.781 -465.425)" fill="#fff"/>
                </g>
              </g>
            </g>
            <g id="Group_202" data-name="Group 202">
              <g id="Group_201" data-name="Group 201">
                <g id="Group_197" data-name="Group 197">
                  <path id="Path_297" data-name="Path 297" d="M991.288,286.16a2.655,2.655,0,1,0,2.655-2.655A2.655,2.655,0,0,0,991.288,286.16Z" transform="translate(-922.839 -283.505)" fill="#fff"/>
                  <path id="Path_298" data-name="Path 298" d="M1019.119,286.16a2.655,2.655,0,1,0,2.655-2.655A2.655,2.655,0,0,0,1019.119,286.16Z" transform="translate(-973.486 -283.505)" fill="#fff"/>
                  <path id="Path_299" data-name="Path 299" d="M1046.95,286.16a2.655,2.655,0,1,0,2.655-2.655A2.655,2.655,0,0,0,1046.95,286.16Z" transform="translate(-1024.134 -283.505)" fill="#fff"/>
                  <path id="Path_300" data-name="Path 300" d="M1074.781,286.16a2.655,2.655,0,1,0,2.655-2.655A2.655,2.655,0,0,0,1074.781,286.16Z" transform="translate(-1074.781 -283.505)" fill="#fff"/>
                </g>
                <g id="Group_198" data-name="Group 198" transform="translate(0 21.638)">
                  <path id="Path_301" data-name="Path 301" d="M991.288,312.554a2.655,2.655,0,1,0,2.655-2.655A2.655,2.655,0,0,0,991.288,312.554Z" transform="translate(-922.839 -309.899)" fill="#fff"/>
                  <path id="Path_302" data-name="Path 302" d="M1019.119,312.554a2.655,2.655,0,1,0,2.655-2.655A2.655,2.655,0,0,0,1019.119,312.554Z" transform="translate(-973.486 -309.899)" fill="#fff"/>
                  <path id="Path_303" data-name="Path 303" d="M1046.95,312.554a2.655,2.655,0,1,0,2.655-2.655A2.655,2.655,0,0,0,1046.95,312.554Z" transform="translate(-1024.134 -309.899)" fill="#fff"/>
                  <path id="Path_304" data-name="Path 304" d="M1074.781,312.554a2.655,2.655,0,1,0,2.655-2.655A2.655,2.655,0,0,0,1074.781,312.554Z" transform="translate(-1074.781 -309.899)" fill="#fff"/>
                </g>
                <g id="Group_199" data-name="Group 199" transform="translate(0 43.277)">
                  <path id="Path_305" data-name="Path 305" d="M991.288,338.948a2.655,2.655,0,1,0,2.655-2.655A2.655,2.655,0,0,0,991.288,338.948Z" transform="translate(-922.839 -336.293)" fill="#fff"/>
                  <path id="Path_306" data-name="Path 306" d="M1019.119,338.948a2.655,2.655,0,1,0,2.655-2.655A2.655,2.655,0,0,0,1019.119,338.948Z" transform="translate(-973.486 -336.293)" fill="#fff"/>
                  <path id="Path_307" data-name="Path 307" d="M1046.95,338.948a2.655,2.655,0,1,0,2.655-2.655A2.655,2.655,0,0,0,1046.95,338.948Z" transform="translate(-1024.134 -336.293)" fill="#fff"/>
                  <path id="Path_308" data-name="Path 308" d="M1074.781,338.948a2.655,2.655,0,1,0,2.655-2.655A2.655,2.655,0,0,0,1074.781,338.948Z" transform="translate(-1074.781 -336.293)" fill="#fff"/>
                </g>
                <g id="Group_200" data-name="Group 200" transform="translate(0 64.915)">
                  <path id="Path_309" data-name="Path 309" d="M991.288,365.342a2.655,2.655,0,1,0,2.655-2.655A2.655,2.655,0,0,0,991.288,365.342Z" transform="translate(-922.839 -362.687)" fill="#fff"/>
                  <path id="Path_310" data-name="Path 310" d="M1019.119,365.342a2.655,2.655,0,1,0,2.655-2.655A2.655,2.655,0,0,0,1019.119,365.342Z" transform="translate(-973.486 -362.687)" fill="#fff"/>
                  <path id="Path_311" data-name="Path 311" d="M1046.95,365.342a2.655,2.655,0,1,0,2.655-2.655A2.655,2.655,0,0,0,1046.95,365.342Z" transform="translate(-1024.134 -362.687)" fill="#fff"/>
                  <path id="Path_312" data-name="Path 312" d="M1074.781,365.342a2.655,2.655,0,1,0,2.655-2.655A2.655,2.655,0,0,0,1074.781,365.342Z" transform="translate(-1074.781 -362.687)" fill="#fff"/>
                </g>
              </g>
            </g>
          </g>
        </g>
        <g id="Group_218" data-name="Group 218" transform="translate(1428.829 1917.5)">
          <g id="Group_217" data-name="Group 217">
            <g id="Group_210" data-name="Group 210" transform="translate(0 84.227)">
              <g id="Group_209" data-name="Group 209">
                <g id="Group_205" data-name="Group 205">
                  <circle id="Ellipse_46" data-name="Ellipse 46" cx="2.655" cy="2.655" r="2.655" transform="translate(68.449)" fill="#fff"/>
                  <path id="Path_313" data-name="Path 313" d="M1019.119,388.9a2.655,2.655,0,1,0,2.655-2.655A2.655,2.655,0,0,0,1019.119,388.9Z" transform="translate(-973.486 -386.244)" fill="#fff"/>
                  <circle id="Ellipse_47" data-name="Ellipse 47" cx="2.655" cy="2.655" r="2.655" transform="translate(22.817)" fill="#fff"/>
                  <path id="Path_314" data-name="Path 314" d="M1074.781,388.9a2.655,2.655,0,1,0,2.655-2.655A2.655,2.655,0,0,0,1074.781,388.9Z" transform="translate(-1074.781 -386.244)" fill="#fff"/>
                </g>
                <g id="Group_206" data-name="Group 206" transform="translate(0 21.638)">
                  <path id="Path_315" data-name="Path 315" d="M991.288,415.292a2.655,2.655,0,1,0,2.655-2.655A2.655,2.655,0,0,0,991.288,415.292Z" transform="translate(-922.839 -412.637)" fill="#fff"/>
                  <path id="Path_316" data-name="Path 316" d="M1019.119,415.292a2.655,2.655,0,1,0,2.655-2.655A2.655,2.655,0,0,0,1019.119,415.292Z" transform="translate(-973.486 -412.637)" fill="#fff"/>
                  <path id="Path_317" data-name="Path 317" d="M1046.95,415.292a2.655,2.655,0,1,0,2.655-2.655A2.655,2.655,0,0,0,1046.95,415.292Z" transform="translate(-1024.134 -412.637)" fill="#fff"/>
                  <path id="Path_318" data-name="Path 318" d="M1074.781,415.292a2.655,2.655,0,1,0,2.655-2.655A2.655,2.655,0,0,0,1074.781,415.292Z" transform="translate(-1074.781 -412.637)" fill="#fff"/>
                </g>
                <g id="Group_207" data-name="Group 207" transform="translate(0 43.276)">
                  <circle id="Ellipse_48" data-name="Ellipse 48" cx="2.655" cy="2.655" r="2.655" transform="translate(68.449 0)" fill="#fff"/>
                  <path id="Path_319" data-name="Path 319" d="M1019.119,441.686a2.655,2.655,0,1,0,2.655-2.655A2.655,2.655,0,0,0,1019.119,441.686Z" transform="translate(-973.486 -439.031)" fill="#fff"/>
                  <circle id="Ellipse_49" data-name="Ellipse 49" cx="2.655" cy="2.655" r="2.655" transform="translate(22.817 0)" fill="#fff"/>
                  <path id="Path_320" data-name="Path 320" d="M1074.781,441.686a2.655,2.655,0,1,0,2.655-2.655A2.655,2.655,0,0,0,1074.781,441.686Z" transform="translate(-1074.781 -439.031)" fill="#fff"/>
                </g>
                <g id="Group_208" data-name="Group 208" transform="translate(0 64.914)">
                  <path id="Path_321" data-name="Path 321" d="M991.288,468.08a2.655,2.655,0,1,0,2.655-2.655A2.655,2.655,0,0,0,991.288,468.08Z" transform="translate(-922.839 -465.425)" fill="#fff"/>
                  <path id="Path_322" data-name="Path 322" d="M1019.119,468.08a2.655,2.655,0,1,0,2.655-2.655A2.655,2.655,0,0,0,1019.119,468.08Z" transform="translate(-973.486 -465.425)" fill="#fff"/>
                  <path id="Path_323" data-name="Path 323" d="M1046.95,468.08a2.655,2.655,0,1,0,2.655-2.655A2.655,2.655,0,0,0,1046.95,468.08Z" transform="translate(-1024.134 -465.425)" fill="#fff"/>
                  <path id="Path_324" data-name="Path 324" d="M1074.781,468.08a2.655,2.655,0,1,0,2.655-2.655A2.655,2.655,0,0,0,1074.781,468.08Z" transform="translate(-1074.781 -465.425)" fill="#fff"/>
                </g>
              </g>
            </g>
            <g id="Group_216" data-name="Group 216">
              <g id="Group_215" data-name="Group 215">
                <g id="Group_211" data-name="Group 211">
                  <path id="Path_325" data-name="Path 325" d="M991.288,286.16a2.655,2.655,0,1,0,2.655-2.655A2.655,2.655,0,0,0,991.288,286.16Z" transform="translate(-922.839 -283.505)" fill="#fff"/>
                  <path id="Path_326" data-name="Path 326" d="M1019.119,286.16a2.655,2.655,0,1,0,2.655-2.655A2.655,2.655,0,0,0,1019.119,286.16Z" transform="translate(-973.486 -283.505)" fill="#fff"/>
                  <path id="Path_327" data-name="Path 327" d="M1046.95,286.16a2.655,2.655,0,1,0,2.655-2.655A2.655,2.655,0,0,0,1046.95,286.16Z" transform="translate(-1024.134 -283.505)" fill="#fff"/>
                  <path id="Path_328" data-name="Path 328" d="M1074.781,286.16a2.655,2.655,0,1,0,2.655-2.655A2.655,2.655,0,0,0,1074.781,286.16Z" transform="translate(-1074.781 -283.505)" fill="#fff"/>
                </g>
                <g id="Group_212" data-name="Group 212" transform="translate(0 21.638)">
                  <path id="Path_329" data-name="Path 329" d="M991.288,312.554a2.655,2.655,0,1,0,2.655-2.655A2.655,2.655,0,0,0,991.288,312.554Z" transform="translate(-922.839 -309.899)" fill="#fff"/>
                  <path id="Path_330" data-name="Path 330" d="M1019.119,312.554a2.655,2.655,0,1,0,2.655-2.655A2.655,2.655,0,0,0,1019.119,312.554Z" transform="translate(-973.486 -309.899)" fill="#fff"/>
                  <path id="Path_331" data-name="Path 331" d="M1046.95,312.554a2.655,2.655,0,1,0,2.655-2.655A2.655,2.655,0,0,0,1046.95,312.554Z" transform="translate(-1024.134 -309.899)" fill="#fff"/>
                  <path id="Path_332" data-name="Path 332" d="M1074.781,312.554a2.655,2.655,0,1,0,2.655-2.655A2.655,2.655,0,0,0,1074.781,312.554Z" transform="translate(-1074.781 -309.899)" fill="#fff"/>
                </g>
                <g id="Group_213" data-name="Group 213" transform="translate(0 43.277)">
                  <path id="Path_333" data-name="Path 333" d="M991.288,338.948a2.655,2.655,0,1,0,2.655-2.655A2.655,2.655,0,0,0,991.288,338.948Z" transform="translate(-922.839 -336.293)" fill="#fff"/>
                  <path id="Path_334" data-name="Path 334" d="M1019.119,338.948a2.655,2.655,0,1,0,2.655-2.655A2.655,2.655,0,0,0,1019.119,338.948Z" transform="translate(-973.486 -336.293)" fill="#fff"/>
                  <path id="Path_335" data-name="Path 335" d="M1046.95,338.948a2.655,2.655,0,1,0,2.655-2.655A2.655,2.655,0,0,0,1046.95,338.948Z" transform="translate(-1024.134 -336.293)" fill="#fff"/>
                  <path id="Path_336" data-name="Path 336" d="M1074.781,338.948a2.655,2.655,0,1,0,2.655-2.655A2.655,2.655,0,0,0,1074.781,338.948Z" transform="translate(-1074.781 -336.293)" fill="#fff"/>
                </g>
                <g id="Group_214" data-name="Group 214" transform="translate(0 64.915)">
                  <path id="Path_337" data-name="Path 337" d="M991.288,365.342a2.655,2.655,0,1,0,2.655-2.655A2.655,2.655,0,0,0,991.288,365.342Z" transform="translate(-922.839 -362.687)" fill="#fff"/>
                  <path id="Path_338" data-name="Path 338" d="M1019.119,365.342a2.655,2.655,0,1,0,2.655-2.655A2.655,2.655,0,0,0,1019.119,365.342Z" transform="translate(-973.486 -362.687)" fill="#fff"/>
                  <path id="Path_339" data-name="Path 339" d="M1046.95,365.342a2.655,2.655,0,1,0,2.655-2.655A2.655,2.655,0,0,0,1046.95,365.342Z" transform="translate(-1024.134 -362.687)" fill="#fff"/>
                  <path id="Path_340" data-name="Path 340" d="M1074.781,365.342a2.655,2.655,0,1,0,2.655-2.655A2.655,2.655,0,0,0,1074.781,365.342Z" transform="translate(-1074.781 -362.687)" fill="#fff"/>
                </g>
              </g>
            </g>
          </g>
        </g>
        <g id="Group_232" data-name="Group 232" transform="translate(837.934 2083.977) rotate(90)">
          <g id="Group_231" data-name="Group 231">
            <g id="Group_224" data-name="Group 224" transform="translate(0 84.227)">
              <g id="Group_223" data-name="Group 223">
                <g id="Group_219" data-name="Group 219">
                  <circle id="Ellipse_50" data-name="Ellipse 50" cx="2.655" cy="2.655" r="2.655" transform="translate(68.449)" fill="#fff"/>
                  <path id="Path_341" data-name="Path 341" d="M1019.119,388.9a2.655,2.655,0,1,0,2.655-2.655A2.655,2.655,0,0,0,1019.119,388.9Z" transform="translate(-973.486 -386.244)" fill="#fff"/>
                  <circle id="Ellipse_51" data-name="Ellipse 51" cx="2.655" cy="2.655" r="2.655" transform="translate(22.817)" fill="#fff"/>
                  <path id="Path_342" data-name="Path 342" d="M1074.781,388.9a2.655,2.655,0,1,0,2.655-2.655A2.655,2.655,0,0,0,1074.781,388.9Z" transform="translate(-1074.781 -386.244)" fill="#fff"/>
                </g>
                <g id="Group_220" data-name="Group 220" transform="translate(0 21.638)">
                  <path id="Path_343" data-name="Path 343" d="M991.288,415.292a2.655,2.655,0,1,0,2.655-2.655A2.655,2.655,0,0,0,991.288,415.292Z" transform="translate(-922.839 -412.637)" fill="#fff"/>
                  <path id="Path_344" data-name="Path 344" d="M1019.119,415.292a2.655,2.655,0,1,0,2.655-2.655A2.655,2.655,0,0,0,1019.119,415.292Z" transform="translate(-973.486 -412.637)" fill="#fff"/>
                  <path id="Path_345" data-name="Path 345" d="M1046.95,415.292a2.655,2.655,0,1,0,2.655-2.655A2.655,2.655,0,0,0,1046.95,415.292Z" transform="translate(-1024.134 -412.637)" fill="#fff"/>
                  <path id="Path_346" data-name="Path 346" d="M1074.781,415.292a2.655,2.655,0,1,0,2.655-2.655A2.655,2.655,0,0,0,1074.781,415.292Z" transform="translate(-1074.781 -412.637)" fill="#fff"/>
                </g>
                <g id="Group_221" data-name="Group 221" transform="translate(0 43.276)">
                  <circle id="Ellipse_52" data-name="Ellipse 52" cx="2.655" cy="2.655" r="2.655" transform="translate(68.449 0)" fill="#fff"/>
                  <path id="Path_347" data-name="Path 347" d="M1019.119,441.686a2.655,2.655,0,1,0,2.655-2.655A2.655,2.655,0,0,0,1019.119,441.686Z" transform="translate(-973.486 -439.031)" fill="#fff"/>
                  <circle id="Ellipse_53" data-name="Ellipse 53" cx="2.655" cy="2.655" r="2.655" transform="translate(22.817 0)" fill="#fff"/>
                  <path id="Path_348" data-name="Path 348" d="M1074.781,441.686a2.655,2.655,0,1,0,2.655-2.655A2.655,2.655,0,0,0,1074.781,441.686Z" transform="translate(-1074.781 -439.031)" fill="#fff"/>
                </g>
                <g id="Group_222" data-name="Group 222" transform="translate(0 64.914)">
                  <path id="Path_349" data-name="Path 349" d="M991.288,468.08a2.655,2.655,0,1,0,2.655-2.655A2.655,2.655,0,0,0,991.288,468.08Z" transform="translate(-922.839 -465.425)" fill="#fff"/>
                  <path id="Path_350" data-name="Path 350" d="M1019.119,468.08a2.655,2.655,0,1,0,2.655-2.655A2.655,2.655,0,0,0,1019.119,468.08Z" transform="translate(-973.486 -465.425)" fill="#fff"/>
                  <path id="Path_351" data-name="Path 351" d="M1046.95,468.08a2.655,2.655,0,1,0,2.655-2.655A2.655,2.655,0,0,0,1046.95,468.08Z" transform="translate(-1024.134 -465.425)" fill="#fff"/>
                  <path id="Path_352" data-name="Path 352" d="M1074.781,468.08a2.655,2.655,0,1,0,2.655-2.655A2.655,2.655,0,0,0,1074.781,468.08Z" transform="translate(-1074.781 -465.425)" fill="#fff"/>
                </g>
              </g>
            </g>
            <g id="Group_230" data-name="Group 230">
              <g id="Group_229" data-name="Group 229">
                <g id="Group_225" data-name="Group 225">
                  <path id="Path_353" data-name="Path 353" d="M991.288,286.16a2.655,2.655,0,1,0,2.655-2.655A2.655,2.655,0,0,0,991.288,286.16Z" transform="translate(-922.839 -283.505)" fill="#fff"/>
                  <path id="Path_354" data-name="Path 354" d="M1019.119,286.16a2.655,2.655,0,1,0,2.655-2.655A2.655,2.655,0,0,0,1019.119,286.16Z" transform="translate(-973.486 -283.505)" fill="#fff"/>
                  <path id="Path_355" data-name="Path 355" d="M1046.95,286.16a2.655,2.655,0,1,0,2.655-2.655A2.655,2.655,0,0,0,1046.95,286.16Z" transform="translate(-1024.134 -283.505)" fill="#fff"/>
                  <path id="Path_356" data-name="Path 356" d="M1074.781,286.16a2.655,2.655,0,1,0,2.655-2.655A2.655,2.655,0,0,0,1074.781,286.16Z" transform="translate(-1074.781 -283.505)" fill="#fff"/>
                </g>
                <g id="Group_226" data-name="Group 226" transform="translate(0 21.638)">
                  <path id="Path_357" data-name="Path 357" d="M991.288,312.554a2.655,2.655,0,1,0,2.655-2.655A2.655,2.655,0,0,0,991.288,312.554Z" transform="translate(-922.839 -309.899)" fill="#fff"/>
                  <path id="Path_358" data-name="Path 358" d="M1019.119,312.554a2.655,2.655,0,1,0,2.655-2.655A2.655,2.655,0,0,0,1019.119,312.554Z" transform="translate(-973.486 -309.899)" fill="#fff"/>
                  <path id="Path_359" data-name="Path 359" d="M1046.95,312.554a2.655,2.655,0,1,0,2.655-2.655A2.655,2.655,0,0,0,1046.95,312.554Z" transform="translate(-1024.134 -309.899)" fill="#fff"/>
                  <path id="Path_360" data-name="Path 360" d="M1074.781,312.554a2.655,2.655,0,1,0,2.655-2.655A2.655,2.655,0,0,0,1074.781,312.554Z" transform="translate(-1074.781 -309.899)" fill="#fff"/>
                </g>
                <g id="Group_227" data-name="Group 227" transform="translate(0 43.277)">
                  <path id="Path_361" data-name="Path 361" d="M991.288,338.948a2.655,2.655,0,1,0,2.655-2.655A2.655,2.655,0,0,0,991.288,338.948Z" transform="translate(-922.839 -336.293)" fill="#fff"/>
                  <path id="Path_362" data-name="Path 362" d="M1019.119,338.948a2.655,2.655,0,1,0,2.655-2.655A2.655,2.655,0,0,0,1019.119,338.948Z" transform="translate(-973.486 -336.293)" fill="#fff"/>
                  <path id="Path_363" data-name="Path 363" d="M1046.95,338.948a2.655,2.655,0,1,0,2.655-2.655A2.655,2.655,0,0,0,1046.95,338.948Z" transform="translate(-1024.134 -336.293)" fill="#fff"/>
                  <path id="Path_364" data-name="Path 364" d="M1074.781,338.948a2.655,2.655,0,1,0,2.655-2.655A2.655,2.655,0,0,0,1074.781,338.948Z" transform="translate(-1074.781 -336.293)" fill="#fff"/>
                </g>
                <g id="Group_228" data-name="Group 228" transform="translate(0 64.915)">
                  <path id="Path_365" data-name="Path 365" d="M991.288,365.342a2.655,2.655,0,1,0,2.655-2.655A2.655,2.655,0,0,0,991.288,365.342Z" transform="translate(-922.839 -362.687)" fill="#fff"/>
                  <path id="Path_366" data-name="Path 366" d="M1019.119,365.342a2.655,2.655,0,1,0,2.655-2.655A2.655,2.655,0,0,0,1019.119,365.342Z" transform="translate(-973.486 -362.687)" fill="#fff"/>
                  <path id="Path_367" data-name="Path 367" d="M1046.95,365.342a2.655,2.655,0,1,0,2.655-2.655A2.655,2.655,0,0,0,1046.95,365.342Z" transform="translate(-1024.134 -362.687)" fill="#fff"/>
                  <path id="Path_368" data-name="Path 368" d="M1074.781,365.342a2.655,2.655,0,1,0,2.655-2.655A2.655,2.655,0,0,0,1074.781,365.342Z" transform="translate(-1074.781 -362.687)" fill="#fff"/>
                </g>
              </g>
            </g>
          </g>
        </g>
        <g id="Group_246" data-name="Group 246" transform="translate(446.171 1692.241) rotate(90)">
          <g id="Group_245" data-name="Group 245">
            <g id="Group_238" data-name="Group 238" transform="translate(0 84.227)">
              <g id="Group_237" data-name="Group 237">
                <g id="Group_233" data-name="Group 233">
                  <circle id="Ellipse_54" data-name="Ellipse 54" cx="2.655" cy="2.655" r="2.655" transform="translate(68.449)" fill="#fff"/>
                  <path id="Path_369" data-name="Path 369" d="M1019.119,388.9a2.655,2.655,0,1,0,2.655-2.655A2.655,2.655,0,0,0,1019.119,388.9Z" transform="translate(-973.486 -386.244)" fill="#fff"/>
                  <circle id="Ellipse_55" data-name="Ellipse 55" cx="2.655" cy="2.655" r="2.655" transform="translate(22.817)" fill="#fff"/>
                  <path id="Path_370" data-name="Path 370" d="M1074.781,388.9a2.655,2.655,0,1,0,2.655-2.655A2.655,2.655,0,0,0,1074.781,388.9Z" transform="translate(-1074.781 -386.244)" fill="#fff"/>
                </g>
                <g id="Group_234" data-name="Group 234" transform="translate(0 21.638)">
                  <path id="Path_371" data-name="Path 371" d="M991.288,415.292a2.655,2.655,0,1,0,2.655-2.655A2.655,2.655,0,0,0,991.288,415.292Z" transform="translate(-922.839 -412.637)" fill="#fff"/>
                  <path id="Path_372" data-name="Path 372" d="M1019.119,415.292a2.655,2.655,0,1,0,2.655-2.655A2.655,2.655,0,0,0,1019.119,415.292Z" transform="translate(-973.486 -412.637)" fill="#fff"/>
                  <path id="Path_373" data-name="Path 373" d="M1046.95,415.292a2.655,2.655,0,1,0,2.655-2.655A2.655,2.655,0,0,0,1046.95,415.292Z" transform="translate(-1024.134 -412.637)" fill="#fff"/>
                  <path id="Path_374" data-name="Path 374" d="M1074.781,415.292a2.655,2.655,0,1,0,2.655-2.655A2.655,2.655,0,0,0,1074.781,415.292Z" transform="translate(-1074.781 -412.637)" fill="#fff"/>
                </g>
                <g id="Group_235" data-name="Group 235" transform="translate(0 43.276)">
                  <circle id="Ellipse_56" data-name="Ellipse 56" cx="2.655" cy="2.655" r="2.655" transform="translate(68.449 0)" fill="#fff"/>
                  <path id="Path_375" data-name="Path 375" d="M1019.119,441.686a2.655,2.655,0,1,0,2.655-2.655A2.655,2.655,0,0,0,1019.119,441.686Z" transform="translate(-973.486 -439.031)" fill="#fff"/>
                  <circle id="Ellipse_57" data-name="Ellipse 57" cx="2.655" cy="2.655" r="2.655" transform="translate(22.817 0)" fill="#fff"/>
                  <path id="Path_376" data-name="Path 376" d="M1074.781,441.686a2.655,2.655,0,1,0,2.655-2.655A2.655,2.655,0,0,0,1074.781,441.686Z" transform="translate(-1074.781 -439.031)" fill="#fff"/>
                </g>
                <g id="Group_236" data-name="Group 236" transform="translate(0 64.914)">
                  <path id="Path_377" data-name="Path 377" d="M991.288,468.08a2.655,2.655,0,1,0,2.655-2.655A2.655,2.655,0,0,0,991.288,468.08Z" transform="translate(-922.839 -465.425)" fill="#fff"/>
                  <path id="Path_378" data-name="Path 378" d="M1019.119,468.08a2.655,2.655,0,1,0,2.655-2.655A2.655,2.655,0,0,0,1019.119,468.08Z" transform="translate(-973.486 -465.425)" fill="#fff"/>
                  <path id="Path_379" data-name="Path 379" d="M1046.95,468.08a2.655,2.655,0,1,0,2.655-2.655A2.655,2.655,0,0,0,1046.95,468.08Z" transform="translate(-1024.134 -465.425)" fill="#fff"/>
                  <path id="Path_380" data-name="Path 380" d="M1074.781,468.08a2.655,2.655,0,1,0,2.655-2.655A2.655,2.655,0,0,0,1074.781,468.08Z" transform="translate(-1074.781 -465.425)" fill="#fff"/>
                </g>
              </g>
            </g>
            <g id="Group_244" data-name="Group 244">
              <g id="Group_243" data-name="Group 243">
                <g id="Group_239" data-name="Group 239">
                  <path id="Path_381" data-name="Path 381" d="M991.288,286.16a2.655,2.655,0,1,0,2.655-2.655A2.655,2.655,0,0,0,991.288,286.16Z" transform="translate(-922.839 -283.505)" fill="#fff"/>
                  <path id="Path_382" data-name="Path 382" d="M1019.119,286.16a2.655,2.655,0,1,0,2.655-2.655A2.655,2.655,0,0,0,1019.119,286.16Z" transform="translate(-973.486 -283.505)" fill="#fff"/>
                  <path id="Path_383" data-name="Path 383" d="M1046.95,286.16a2.655,2.655,0,1,0,2.655-2.655A2.655,2.655,0,0,0,1046.95,286.16Z" transform="translate(-1024.134 -283.505)" fill="#fff"/>
                  <path id="Path_384" data-name="Path 384" d="M1074.781,286.16a2.655,2.655,0,1,0,2.655-2.655A2.655,2.655,0,0,0,1074.781,286.16Z" transform="translate(-1074.781 -283.505)" fill="#fff"/>
                </g>
                <g id="Group_240" data-name="Group 240" transform="translate(0 21.638)">
                  <path id="Path_385" data-name="Path 385" d="M991.288,312.554a2.655,2.655,0,1,0,2.655-2.655A2.655,2.655,0,0,0,991.288,312.554Z" transform="translate(-922.839 -309.899)" fill="#fff"/>
                  <path id="Path_386" data-name="Path 386" d="M1019.119,312.554a2.655,2.655,0,1,0,2.655-2.655A2.655,2.655,0,0,0,1019.119,312.554Z" transform="translate(-973.486 -309.899)" fill="#fff"/>
                  <path id="Path_387" data-name="Path 387" d="M1046.95,312.554a2.655,2.655,0,1,0,2.655-2.655A2.655,2.655,0,0,0,1046.95,312.554Z" transform="translate(-1024.134 -309.899)" fill="#fff"/>
                  <path id="Path_388" data-name="Path 388" d="M1074.781,312.554a2.655,2.655,0,1,0,2.655-2.655A2.655,2.655,0,0,0,1074.781,312.554Z" transform="translate(-1074.781 -309.899)" fill="#fff"/>
                </g>
                <g id="Group_241" data-name="Group 241" transform="translate(0 43.277)">
                  <path id="Path_389" data-name="Path 389" d="M991.288,338.948a2.655,2.655,0,1,0,2.655-2.655A2.655,2.655,0,0,0,991.288,338.948Z" transform="translate(-922.839 -336.293)" fill="#fff"/>
                  <path id="Path_390" data-name="Path 390" d="M1019.119,338.948a2.655,2.655,0,1,0,2.655-2.655A2.655,2.655,0,0,0,1019.119,338.948Z" transform="translate(-973.486 -336.293)" fill="#fff"/>
                  <path id="Path_391" data-name="Path 391" d="M1046.95,338.948a2.655,2.655,0,1,0,2.655-2.655A2.655,2.655,0,0,0,1046.95,338.948Z" transform="translate(-1024.134 -336.293)" fill="#fff"/>
                  <path id="Path_392" data-name="Path 392" d="M1074.781,338.948a2.655,2.655,0,1,0,2.655-2.655A2.655,2.655,0,0,0,1074.781,338.948Z" transform="translate(-1074.781 -336.293)" fill="#fff"/>
                </g>
                <g id="Group_242" data-name="Group 242" transform="translate(0 64.915)">
                  <path id="Path_393" data-name="Path 393" d="M991.288,365.342a2.655,2.655,0,1,0,2.655-2.655A2.655,2.655,0,0,0,991.288,365.342Z" transform="translate(-922.839 -362.687)" fill="#fff"/>
                  <path id="Path_394" data-name="Path 394" d="M1019.119,365.342a2.655,2.655,0,1,0,2.655-2.655A2.655,2.655,0,0,0,1019.119,365.342Z" transform="translate(-973.486 -362.687)" fill="#fff"/>
                  <path id="Path_395" data-name="Path 395" d="M1046.95,365.342a2.655,2.655,0,1,0,2.655-2.655A2.655,2.655,0,0,0,1046.95,365.342Z" transform="translate(-1024.134 -362.687)" fill="#fff"/>
                  <path id="Path_396" data-name="Path 396" d="M1074.781,365.342a2.655,2.655,0,1,0,2.655-2.655A2.655,2.655,0,0,0,1074.781,365.342Z" transform="translate(-1074.781 -362.687)" fill="#fff"/>
                </g>
              </g>
            </g>
          </g>
        </g>
        <g id="Group_260" data-name="Group 260" transform="translate(332.065 2308.492)">
          <g id="Group_259" data-name="Group 259">
            <g id="Group_252" data-name="Group 252" transform="translate(0 84.227)">
              <g id="Group_251" data-name="Group 251">
                <g id="Group_247" data-name="Group 247">
                  <circle id="Ellipse_58" data-name="Ellipse 58" cx="2.655" cy="2.655" r="2.655" transform="translate(68.449)" fill="#fff"/>
                  <path id="Path_397" data-name="Path 397" d="M1019.119,388.9a2.655,2.655,0,1,0,2.655-2.655A2.655,2.655,0,0,0,1019.119,388.9Z" transform="translate(-973.486 -386.244)" fill="#fff"/>
                  <circle id="Ellipse_59" data-name="Ellipse 59" cx="2.655" cy="2.655" r="2.655" transform="translate(22.817)" fill="#fff"/>
                  <path id="Path_398" data-name="Path 398" d="M1074.781,388.9a2.655,2.655,0,1,0,2.655-2.655A2.655,2.655,0,0,0,1074.781,388.9Z" transform="translate(-1074.781 -386.244)" fill="#fff"/>
                </g>
                <g id="Group_248" data-name="Group 248" transform="translate(0 21.638)">
                  <path id="Path_399" data-name="Path 399" d="M991.288,415.292a2.655,2.655,0,1,0,2.655-2.655A2.655,2.655,0,0,0,991.288,415.292Z" transform="translate(-922.839 -412.637)" fill="#fff"/>
                  <path id="Path_400" data-name="Path 400" d="M1019.119,415.292a2.655,2.655,0,1,0,2.655-2.655A2.655,2.655,0,0,0,1019.119,415.292Z" transform="translate(-973.486 -412.637)" fill="#fff"/>
                  <path id="Path_401" data-name="Path 401" d="M1046.95,415.292a2.655,2.655,0,1,0,2.655-2.655A2.655,2.655,0,0,0,1046.95,415.292Z" transform="translate(-1024.134 -412.637)" fill="#fff"/>
                  <path id="Path_402" data-name="Path 402" d="M1074.781,415.292a2.655,2.655,0,1,0,2.655-2.655A2.655,2.655,0,0,0,1074.781,415.292Z" transform="translate(-1074.781 -412.637)" fill="#fff"/>
                </g>
                <g id="Group_249" data-name="Group 249" transform="translate(0 43.276)">
                  <circle id="Ellipse_60" data-name="Ellipse 60" cx="2.655" cy="2.655" r="2.655" transform="translate(68.449 0)" fill="#fff"/>
                  <path id="Path_403" data-name="Path 403" d="M1019.119,441.686a2.655,2.655,0,1,0,2.655-2.655A2.655,2.655,0,0,0,1019.119,441.686Z" transform="translate(-973.486 -439.031)" fill="#fff"/>
                  <circle id="Ellipse_61" data-name="Ellipse 61" cx="2.655" cy="2.655" r="2.655" transform="translate(22.817 0)" fill="#fff"/>
                  <path id="Path_404" data-name="Path 404" d="M1074.781,441.686a2.655,2.655,0,1,0,2.655-2.655A2.655,2.655,0,0,0,1074.781,441.686Z" transform="translate(-1074.781 -439.031)" fill="#fff"/>
                </g>
                <g id="Group_250" data-name="Group 250" transform="translate(0 64.914)">
                  <path id="Path_405" data-name="Path 405" d="M991.288,468.08a2.655,2.655,0,1,0,2.655-2.655A2.655,2.655,0,0,0,991.288,468.08Z" transform="translate(-922.839 -465.425)" fill="#fff"/>
                  <path id="Path_406" data-name="Path 406" d="M1019.119,468.08a2.655,2.655,0,1,0,2.655-2.655A2.655,2.655,0,0,0,1019.119,468.08Z" transform="translate(-973.486 -465.425)" fill="#fff"/>
                  <path id="Path_407" data-name="Path 407" d="M1046.95,468.08a2.655,2.655,0,1,0,2.655-2.655A2.655,2.655,0,0,0,1046.95,468.08Z" transform="translate(-1024.134 -465.425)" fill="#fff"/>
                  <path id="Path_408" data-name="Path 408" d="M1074.781,468.08a2.655,2.655,0,1,0,2.655-2.655A2.655,2.655,0,0,0,1074.781,468.08Z" transform="translate(-1074.781 -465.425)" fill="#fff"/>
                </g>
              </g>
            </g>
            <g id="Group_258" data-name="Group 258">
              <g id="Group_257" data-name="Group 257">
                <g id="Group_253" data-name="Group 253">
                  <path id="Path_409" data-name="Path 409" d="M991.288,286.16a2.655,2.655,0,1,0,2.655-2.655A2.655,2.655,0,0,0,991.288,286.16Z" transform="translate(-922.839 -283.505)" fill="#fff"/>
                  <path id="Path_410" data-name="Path 410" d="M1019.119,286.16a2.655,2.655,0,1,0,2.655-2.655A2.655,2.655,0,0,0,1019.119,286.16Z" transform="translate(-973.486 -283.505)" fill="#fff"/>
                  <path id="Path_411" data-name="Path 411" d="M1046.95,286.16a2.655,2.655,0,1,0,2.655-2.655A2.655,2.655,0,0,0,1046.95,286.16Z" transform="translate(-1024.134 -283.505)" fill="#fff"/>
                  <path id="Path_412" data-name="Path 412" d="M1074.781,286.16a2.655,2.655,0,1,0,2.655-2.655A2.655,2.655,0,0,0,1074.781,286.16Z" transform="translate(-1074.781 -283.505)" fill="#fff"/>
                </g>
                <g id="Group_254" data-name="Group 254" transform="translate(0 21.638)">
                  <path id="Path_413" data-name="Path 413" d="M991.288,312.554a2.655,2.655,0,1,0,2.655-2.655A2.655,2.655,0,0,0,991.288,312.554Z" transform="translate(-922.839 -309.899)" fill="#fff"/>
                  <path id="Path_414" data-name="Path 414" d="M1019.119,312.554a2.655,2.655,0,1,0,2.655-2.655A2.655,2.655,0,0,0,1019.119,312.554Z" transform="translate(-973.486 -309.899)" fill="#fff"/>
                  <path id="Path_415" data-name="Path 415" d="M1046.95,312.554a2.655,2.655,0,1,0,2.655-2.655A2.655,2.655,0,0,0,1046.95,312.554Z" transform="translate(-1024.134 -309.899)" fill="#fff"/>
                  <path id="Path_416" data-name="Path 416" d="M1074.781,312.554a2.655,2.655,0,1,0,2.655-2.655A2.655,2.655,0,0,0,1074.781,312.554Z" transform="translate(-1074.781 -309.899)" fill="#fff"/>
                </g>
                <g id="Group_255" data-name="Group 255" transform="translate(0 43.277)">
                  <path id="Path_417" data-name="Path 417" d="M991.288,338.948a2.655,2.655,0,1,0,2.655-2.655A2.655,2.655,0,0,0,991.288,338.948Z" transform="translate(-922.839 -336.293)" fill="#fff"/>
                  <path id="Path_418" data-name="Path 418" d="M1019.119,338.948a2.655,2.655,0,1,0,2.655-2.655A2.655,2.655,0,0,0,1019.119,338.948Z" transform="translate(-973.486 -336.293)" fill="#fff"/>
                  <path id="Path_419" data-name="Path 419" d="M1046.95,338.948a2.655,2.655,0,1,0,2.655-2.655A2.655,2.655,0,0,0,1046.95,338.948Z" transform="translate(-1024.134 -336.293)" fill="#fff"/>
                  <path id="Path_420" data-name="Path 420" d="M1074.781,338.948a2.655,2.655,0,1,0,2.655-2.655A2.655,2.655,0,0,0,1074.781,338.948Z" transform="translate(-1074.781 -336.293)" fill="#fff"/>
                </g>
                <g id="Group_256" data-name="Group 256" transform="translate(0 64.915)">
                  <path id="Path_421" data-name="Path 421" d="M991.288,365.342a2.655,2.655,0,1,0,2.655-2.655A2.655,2.655,0,0,0,991.288,365.342Z" transform="translate(-922.839 -362.687)" fill="#fff"/>
                  <path id="Path_422" data-name="Path 422" d="M1019.119,365.342a2.655,2.655,0,1,0,2.655-2.655A2.655,2.655,0,0,0,1019.119,365.342Z" transform="translate(-973.486 -362.687)" fill="#fff"/>
                  <path id="Path_423" data-name="Path 423" d="M1046.95,365.342a2.655,2.655,0,1,0,2.655-2.655A2.655,2.655,0,0,0,1046.95,365.342Z" transform="translate(-1024.134 -362.687)" fill="#fff"/>
                  <path id="Path_424" data-name="Path 424" d="M1074.781,365.342a2.655,2.655,0,1,0,2.655-2.655A2.655,2.655,0,0,0,1074.781,365.342Z" transform="translate(-1074.781 -362.687)" fill="#fff"/>
                </g>
              </g>
            </g>
          </g>
        </g>
        <g id="Group_274" data-name="Group 274" transform="translate(1206.065 2308.492)">
          <g id="Group_273" data-name="Group 273">
            <g id="Group_266" data-name="Group 266" transform="translate(0 84.227)">
              <g id="Group_265" data-name="Group 265">
                <g id="Group_261" data-name="Group 261">
                  <circle id="Ellipse_62" data-name="Ellipse 62" cx="2.655" cy="2.655" r="2.655" transform="translate(68.449)" fill="#fff"/>
                  <path id="Path_425" data-name="Path 425" d="M1019.119,388.9a2.655,2.655,0,1,0,2.655-2.655A2.655,2.655,0,0,0,1019.119,388.9Z" transform="translate(-973.486 -386.244)" fill="#fff"/>
                  <circle id="Ellipse_63" data-name="Ellipse 63" cx="2.655" cy="2.655" r="2.655" transform="translate(22.817)" fill="#fff"/>
                  <path id="Path_426" data-name="Path 426" d="M1074.781,388.9a2.655,2.655,0,1,0,2.655-2.655A2.655,2.655,0,0,0,1074.781,388.9Z" transform="translate(-1074.781 -386.244)" fill="#fff"/>
                </g>
                <g id="Group_262" data-name="Group 262" transform="translate(0 21.638)">
                  <path id="Path_427" data-name="Path 427" d="M991.288,415.292a2.655,2.655,0,1,0,2.655-2.655A2.655,2.655,0,0,0,991.288,415.292Z" transform="translate(-922.839 -412.637)" fill="#fff"/>
                  <path id="Path_428" data-name="Path 428" d="M1019.119,415.292a2.655,2.655,0,1,0,2.655-2.655A2.655,2.655,0,0,0,1019.119,415.292Z" transform="translate(-973.486 -412.637)" fill="#fff"/>
                  <path id="Path_429" data-name="Path 429" d="M1046.95,415.292a2.655,2.655,0,1,0,2.655-2.655A2.655,2.655,0,0,0,1046.95,415.292Z" transform="translate(-1024.134 -412.637)" fill="#fff"/>
                  <path id="Path_430" data-name="Path 430" d="M1074.781,415.292a2.655,2.655,0,1,0,2.655-2.655A2.655,2.655,0,0,0,1074.781,415.292Z" transform="translate(-1074.781 -412.637)" fill="#fff"/>
                </g>
                <g id="Group_263" data-name="Group 263" transform="translate(0 43.276)">
                  <circle id="Ellipse_64" data-name="Ellipse 64" cx="2.655" cy="2.655" r="2.655" transform="translate(68.449 0)" fill="#fff"/>
                  <path id="Path_431" data-name="Path 431" d="M1019.119,441.686a2.655,2.655,0,1,0,2.655-2.655A2.655,2.655,0,0,0,1019.119,441.686Z" transform="translate(-973.486 -439.031)" fill="#fff"/>
                  <circle id="Ellipse_65" data-name="Ellipse 65" cx="2.655" cy="2.655" r="2.655" transform="translate(22.817 0)" fill="#fff"/>
                  <path id="Path_432" data-name="Path 432" d="M1074.781,441.686a2.655,2.655,0,1,0,2.655-2.655A2.655,2.655,0,0,0,1074.781,441.686Z" transform="translate(-1074.781 -439.031)" fill="#fff"/>
                </g>
                <g id="Group_264" data-name="Group 264" transform="translate(0 64.914)">
                  <path id="Path_433" data-name="Path 433" d="M991.288,468.08a2.655,2.655,0,1,0,2.655-2.655A2.655,2.655,0,0,0,991.288,468.08Z" transform="translate(-922.839 -465.425)" fill="#fff"/>
                  <path id="Path_434" data-name="Path 434" d="M1019.119,468.08a2.655,2.655,0,1,0,2.655-2.655A2.655,2.655,0,0,0,1019.119,468.08Z" transform="translate(-973.486 -465.425)" fill="#fff"/>
                  <path id="Path_435" data-name="Path 435" d="M1046.95,468.08a2.655,2.655,0,1,0,2.655-2.655A2.655,2.655,0,0,0,1046.95,468.08Z" transform="translate(-1024.134 -465.425)" fill="#fff"/>
                  <path id="Path_436" data-name="Path 436" d="M1074.781,468.08a2.655,2.655,0,1,0,2.655-2.655A2.655,2.655,0,0,0,1074.781,468.08Z" transform="translate(-1074.781 -465.425)" fill="#fff"/>
                </g>
              </g>
            </g>
            <g id="Group_272" data-name="Group 272">
              <g id="Group_271" data-name="Group 271">
                <g id="Group_267" data-name="Group 267">
                  <path id="Path_437" data-name="Path 437" d="M991.288,286.16a2.655,2.655,0,1,0,2.655-2.655A2.655,2.655,0,0,0,991.288,286.16Z" transform="translate(-922.839 -283.505)" fill="#fff"/>
                  <path id="Path_438" data-name="Path 438" d="M1019.119,286.16a2.655,2.655,0,1,0,2.655-2.655A2.655,2.655,0,0,0,1019.119,286.16Z" transform="translate(-973.486 -283.505)" fill="#fff"/>
                  <path id="Path_439" data-name="Path 439" d="M1046.95,286.16a2.655,2.655,0,1,0,2.655-2.655A2.655,2.655,0,0,0,1046.95,286.16Z" transform="translate(-1024.134 -283.505)" fill="#fff"/>
                  <path id="Path_440" data-name="Path 440" d="M1074.781,286.16a2.655,2.655,0,1,0,2.655-2.655A2.655,2.655,0,0,0,1074.781,286.16Z" transform="translate(-1074.781 -283.505)" fill="#fff"/>
                </g>
                <g id="Group_268" data-name="Group 268" transform="translate(0 21.638)">
                  <path id="Path_441" data-name="Path 441" d="M991.288,312.554a2.655,2.655,0,1,0,2.655-2.655A2.655,2.655,0,0,0,991.288,312.554Z" transform="translate(-922.839 -309.899)" fill="#fff"/>
                  <path id="Path_442" data-name="Path 442" d="M1019.119,312.554a2.655,2.655,0,1,0,2.655-2.655A2.655,2.655,0,0,0,1019.119,312.554Z" transform="translate(-973.486 -309.899)" fill="#fff"/>
                  <path id="Path_443" data-name="Path 443" d="M1046.95,312.554a2.655,2.655,0,1,0,2.655-2.655A2.655,2.655,0,0,0,1046.95,312.554Z" transform="translate(-1024.134 -309.899)" fill="#fff"/>
                  <path id="Path_444" data-name="Path 444" d="M1074.781,312.554a2.655,2.655,0,1,0,2.655-2.655A2.655,2.655,0,0,0,1074.781,312.554Z" transform="translate(-1074.781 -309.899)" fill="#fff"/>
                </g>
                <g id="Group_269" data-name="Group 269" transform="translate(0 43.277)">
                  <path id="Path_445" data-name="Path 445" d="M991.288,338.948a2.655,2.655,0,1,0,2.655-2.655A2.655,2.655,0,0,0,991.288,338.948Z" transform="translate(-922.839 -336.293)" fill="#fff"/>
                  <path id="Path_446" data-name="Path 446" d="M1019.119,338.948a2.655,2.655,0,1,0,2.655-2.655A2.655,2.655,0,0,0,1019.119,338.948Z" transform="translate(-973.486 -336.293)" fill="#fff"/>
                  <path id="Path_447" data-name="Path 447" d="M1046.95,338.948a2.655,2.655,0,1,0,2.655-2.655A2.655,2.655,0,0,0,1046.95,338.948Z" transform="translate(-1024.134 -336.293)" fill="#fff"/>
                  <path id="Path_448" data-name="Path 448" d="M1074.781,338.948a2.655,2.655,0,1,0,2.655-2.655A2.655,2.655,0,0,0,1074.781,338.948Z" transform="translate(-1074.781 -336.293)" fill="#fff"/>
                </g>
                <g id="Group_270" data-name="Group 270" transform="translate(0 64.915)">
                  <path id="Path_449" data-name="Path 449" d="M991.288,365.342a2.655,2.655,0,1,0,2.655-2.655A2.655,2.655,0,0,0,991.288,365.342Z" transform="translate(-922.839 -362.687)" fill="#fff"/>
                  <path id="Path_450" data-name="Path 450" d="M1019.119,365.342a2.655,2.655,0,1,0,2.655-2.655A2.655,2.655,0,0,0,1019.119,365.342Z" transform="translate(-973.486 -362.687)" fill="#fff"/>
                  <path id="Path_451" data-name="Path 451" d="M1046.95,365.342a2.655,2.655,0,1,0,2.655-2.655A2.655,2.655,0,0,0,1046.95,365.342Z" transform="translate(-1024.134 -362.687)" fill="#fff"/>
                  <path id="Path_452" data-name="Path 452" d="M1074.781,365.342a2.655,2.655,0,1,0,2.655-2.655A2.655,2.655,0,0,0,1074.781,365.342Z" transform="translate(-1074.781 -362.687)" fill="#fff"/>
                </g>
              </g>
            </g>
          </g>
        </g>
        <g id="Group_288" data-name="Group 288" transform="translate(1667.039 2323.977) rotate(90)">
          <g id="Group_287" data-name="Group 287">
            <g id="Group_280" data-name="Group 280" transform="translate(0 84.227)">
              <g id="Group_279" data-name="Group 279">
                <g id="Group_275" data-name="Group 275">
                  <circle id="Ellipse_66" data-name="Ellipse 66" cx="2.655" cy="2.655" r="2.655" transform="translate(68.449)" fill="#fff"/>
                  <path id="Path_453" data-name="Path 453" d="M1019.119,388.9a2.655,2.655,0,1,0,2.655-2.655A2.655,2.655,0,0,0,1019.119,388.9Z" transform="translate(-973.486 -386.244)" fill="#fff"/>
                  <circle id="Ellipse_67" data-name="Ellipse 67" cx="2.655" cy="2.655" r="2.655" transform="translate(22.817)" fill="#fff"/>
                  <path id="Path_454" data-name="Path 454" d="M1074.781,388.9a2.655,2.655,0,1,0,2.655-2.655A2.655,2.655,0,0,0,1074.781,388.9Z" transform="translate(-1074.781 -386.244)" fill="#fff"/>
                </g>
                <g id="Group_276" data-name="Group 276" transform="translate(0 21.638)">
                  <path id="Path_455" data-name="Path 455" d="M991.288,415.292a2.655,2.655,0,1,0,2.655-2.655A2.655,2.655,0,0,0,991.288,415.292Z" transform="translate(-922.839 -412.637)" fill="#fff"/>
                  <path id="Path_456" data-name="Path 456" d="M1019.119,415.292a2.655,2.655,0,1,0,2.655-2.655A2.655,2.655,0,0,0,1019.119,415.292Z" transform="translate(-973.486 -412.637)" fill="#fff"/>
                  <path id="Path_457" data-name="Path 457" d="M1046.95,415.292a2.655,2.655,0,1,0,2.655-2.655A2.655,2.655,0,0,0,1046.95,415.292Z" transform="translate(-1024.134 -412.637)" fill="#fff"/>
                  <path id="Path_458" data-name="Path 458" d="M1074.781,415.292a2.655,2.655,0,1,0,2.655-2.655A2.655,2.655,0,0,0,1074.781,415.292Z" transform="translate(-1074.781 -412.637)" fill="#fff"/>
                </g>
                <g id="Group_277" data-name="Group 277" transform="translate(0 43.276)">
                  <circle id="Ellipse_68" data-name="Ellipse 68" cx="2.655" cy="2.655" r="2.655" transform="translate(68.449 0)" fill="#fff"/>
                  <path id="Path_459" data-name="Path 459" d="M1019.119,441.686a2.655,2.655,0,1,0,2.655-2.655A2.655,2.655,0,0,0,1019.119,441.686Z" transform="translate(-973.486 -439.031)" fill="#fff"/>
                  <circle id="Ellipse_69" data-name="Ellipse 69" cx="2.655" cy="2.655" r="2.655" transform="translate(22.817 0)" fill="#fff"/>
                  <path id="Path_460" data-name="Path 460" d="M1074.781,441.686a2.655,2.655,0,1,0,2.655-2.655A2.655,2.655,0,0,0,1074.781,441.686Z" transform="translate(-1074.781 -439.031)" fill="#fff"/>
                </g>
                <g id="Group_278" data-name="Group 278" transform="translate(0 64.914)">
                  <path id="Path_461" data-name="Path 461" d="M991.288,468.08a2.655,2.655,0,1,0,2.655-2.655A2.655,2.655,0,0,0,991.288,468.08Z" transform="translate(-922.839 -465.425)" fill="#fff"/>
                  <path id="Path_462" data-name="Path 462" d="M1019.119,468.08a2.655,2.655,0,1,0,2.655-2.655A2.655,2.655,0,0,0,1019.119,468.08Z" transform="translate(-973.486 -465.425)" fill="#fff"/>
                  <path id="Path_463" data-name="Path 463" d="M1046.95,468.08a2.655,2.655,0,1,0,2.655-2.655A2.655,2.655,0,0,0,1046.95,468.08Z" transform="translate(-1024.134 -465.425)" fill="#fff"/>
                  <path id="Path_464" data-name="Path 464" d="M1074.781,468.08a2.655,2.655,0,1,0,2.655-2.655A2.655,2.655,0,0,0,1074.781,468.08Z" transform="translate(-1074.781 -465.425)" fill="#fff"/>
                </g>
              </g>
            </g>
            <g id="Group_286" data-name="Group 286">
              <g id="Group_285" data-name="Group 285">
                <g id="Group_281" data-name="Group 281">
                  <path id="Path_465" data-name="Path 465" d="M991.288,286.16a2.655,2.655,0,1,0,2.655-2.655A2.655,2.655,0,0,0,991.288,286.16Z" transform="translate(-922.839 -283.505)" fill="#fff"/>
                  <path id="Path_466" data-name="Path 466" d="M1019.119,286.16a2.655,2.655,0,1,0,2.655-2.655A2.655,2.655,0,0,0,1019.119,286.16Z" transform="translate(-973.486 -283.505)" fill="#fff"/>
                  <path id="Path_467" data-name="Path 467" d="M1046.95,286.16a2.655,2.655,0,1,0,2.655-2.655A2.655,2.655,0,0,0,1046.95,286.16Z" transform="translate(-1024.134 -283.505)" fill="#fff"/>
                  <path id="Path_468" data-name="Path 468" d="M1074.781,286.16a2.655,2.655,0,1,0,2.655-2.655A2.655,2.655,0,0,0,1074.781,286.16Z" transform="translate(-1074.781 -283.505)" fill="#fff"/>
                </g>
                <g id="Group_282" data-name="Group 282" transform="translate(0 21.638)">
                  <path id="Path_469" data-name="Path 469" d="M991.288,312.554a2.655,2.655,0,1,0,2.655-2.655A2.655,2.655,0,0,0,991.288,312.554Z" transform="translate(-922.839 -309.899)" fill="#fff"/>
                  <path id="Path_470" data-name="Path 470" d="M1019.119,312.554a2.655,2.655,0,1,0,2.655-2.655A2.655,2.655,0,0,0,1019.119,312.554Z" transform="translate(-973.486 -309.899)" fill="#fff"/>
                  <path id="Path_471" data-name="Path 471" d="M1046.95,312.554a2.655,2.655,0,1,0,2.655-2.655A2.655,2.655,0,0,0,1046.95,312.554Z" transform="translate(-1024.134 -309.899)" fill="#fff"/>
                  <path id="Path_472" data-name="Path 472" d="M1074.781,312.554a2.655,2.655,0,1,0,2.655-2.655A2.655,2.655,0,0,0,1074.781,312.554Z" transform="translate(-1074.781 -309.899)" fill="#fff"/>
                </g>
                <g id="Group_283" data-name="Group 283" transform="translate(0 43.277)">
                  <path id="Path_473" data-name="Path 473" d="M991.288,338.948a2.655,2.655,0,1,0,2.655-2.655A2.655,2.655,0,0,0,991.288,338.948Z" transform="translate(-922.839 -336.293)" fill="#fff"/>
                  <path id="Path_474" data-name="Path 474" d="M1019.119,338.948a2.655,2.655,0,1,0,2.655-2.655A2.655,2.655,0,0,0,1019.119,338.948Z" transform="translate(-973.486 -336.293)" fill="#fff"/>
                  <path id="Path_475" data-name="Path 475" d="M1046.95,338.948a2.655,2.655,0,1,0,2.655-2.655A2.655,2.655,0,0,0,1046.95,338.948Z" transform="translate(-1024.134 -336.293)" fill="#fff"/>
                  <path id="Path_476" data-name="Path 476" d="M1074.781,338.948a2.655,2.655,0,1,0,2.655-2.655A2.655,2.655,0,0,0,1074.781,338.948Z" transform="translate(-1074.781 -336.293)" fill="#fff"/>
                </g>
                <g id="Group_284" data-name="Group 284" transform="translate(0 64.915)">
                  <path id="Path_477" data-name="Path 477" d="M991.288,365.342a2.655,2.655,0,1,0,2.655-2.655A2.655,2.655,0,0,0,991.288,365.342Z" transform="translate(-922.839 -362.687)" fill="#fff"/>
                  <path id="Path_478" data-name="Path 478" d="M1019.119,365.342a2.655,2.655,0,1,0,2.655-2.655A2.655,2.655,0,0,0,1019.119,365.342Z" transform="translate(-973.486 -362.687)" fill="#fff"/>
                  <path id="Path_479" data-name="Path 479" d="M1046.95,365.342a2.655,2.655,0,1,0,2.655-2.655A2.655,2.655,0,0,0,1046.95,365.342Z" transform="translate(-1024.134 -362.687)" fill="#fff"/>
                  <path id="Path_480" data-name="Path 480" d="M1074.781,365.342a2.655,2.655,0,1,0,2.655-2.655A2.655,2.655,0,0,0,1074.781,365.342Z" transform="translate(-1074.781 -362.687)" fill="#fff"/>
                </g>
              </g>
            </g>
          </g>
        </g>
        <g id="Group_292" data-name="Group 292" transform="translate(1856.588 1997.756)">
          <g id="Group_291" data-name="Group 291">
            <g id="Group_289" data-name="Group 289" transform="translate(0 0)">
              <path id="Path_481" data-name="Path 481" d="M886.055,615.051a4.1,4.1,0,0,0,0-5.8L867.2,590.4a4.1,4.1,0,0,0-5.8,5.8l18.857,18.856A4.1,4.1,0,0,0,886.055,615.051Z" transform="translate(-860.201 -589.197)" fill="#fff"/>
            </g>
            <g id="Group_290" data-name="Group 290">
              <path id="Path_482" data-name="Path 482" d="M867.2,615.051l18.857-18.857a4.1,4.1,0,0,0-5.8-5.8L861.4,609.254a4.1,4.1,0,0,0,5.8,5.8Z" transform="translate(-860.201 -589.197)" fill="#fff"/>
            </g>
          </g>
        </g>
        <g id="Group_296" data-name="Group 296" transform="translate(113.945 2348.839)">
          <g id="Group_295" data-name="Group 295">
            <g id="Group_293" data-name="Group 293" transform="translate(0 0)">
              <path id="Path_483" data-name="Path 483" d="M886.055,615.051a4.1,4.1,0,0,0,0-5.8L867.2,590.4a4.1,4.1,0,0,0-5.8,5.8l18.857,18.856A4.1,4.1,0,0,0,886.055,615.051Z" transform="translate(-860.201 -589.197)" fill="#fff"/>
            </g>
            <g id="Group_294" data-name="Group 294">
              <path id="Path_484" data-name="Path 484" d="M867.2,615.051l18.857-18.857a4.1,4.1,0,0,0-5.8-5.8L861.4,609.254a4.1,4.1,0,0,0,5.8,5.8Z" transform="translate(-860.201 -589.197)" fill="#fff"/>
            </g>
          </g>
        </g>
        <g id="Group_300" data-name="Group 300" transform="translate(368.945 1816.171)">
          <g id="Group_299" data-name="Group 299">
            <g id="Group_297" data-name="Group 297" transform="translate(0 0)">
              <path id="Path_485" data-name="Path 485" d="M886.055,615.051a4.1,4.1,0,0,0,0-5.8L867.2,590.4a4.1,4.1,0,0,0-5.8,5.8l18.857,18.856A4.1,4.1,0,0,0,886.055,615.051Z" transform="translate(-860.201 -589.197)" fill="#fff"/>
            </g>
            <g id="Group_298" data-name="Group 298">
              <path id="Path_486" data-name="Path 486" d="M867.2,615.051l18.857-18.857a4.1,4.1,0,0,0-5.8-5.8L861.4,609.254a4.1,4.1,0,0,0,5.8,5.8Z" transform="translate(-860.201 -589.197)" fill="#fff"/>
            </g>
          </g>
        </g>
        <g id="Group_304" data-name="Group 304" transform="translate(1077.945 2184.554)">
          <g id="Group_303" data-name="Group 303">
            <g id="Group_301" data-name="Group 301" transform="translate(0 0)">
              <path id="Path_487" data-name="Path 487" d="M886.055,615.051a4.1,4.1,0,0,0,0-5.8L867.2,590.4a4.1,4.1,0,0,0-5.8,5.8l18.857,18.856A4.1,4.1,0,0,0,886.055,615.051Z" transform="translate(-860.201 -589.197)" fill="#fff"/>
            </g>
            <g id="Group_302" data-name="Group 302">
              <path id="Path_488" data-name="Path 488" d="M867.2,615.051l18.857-18.857a4.1,4.1,0,0,0-5.8-5.8L861.4,609.254a4.1,4.1,0,0,0,5.8,5.8Z" transform="translate(-860.201 -589.197)" fill="#fff"/>
            </g>
          </g>
        </g>
        <g id="Group_308" data-name="Group 308" transform="translate(1077.945 1961.205)">
          <g id="Group_307" data-name="Group 307">
            <g id="Group_305" data-name="Group 305" transform="translate(0 0)">
              <path id="Path_489" data-name="Path 489" d="M886.055,615.051a4.1,4.1,0,0,0,0-5.8L867.2,590.4a4.1,4.1,0,0,0-5.8,5.8l18.857,18.856A4.1,4.1,0,0,0,886.055,615.051Z" transform="translate(-860.201 -589.197)" fill="#fff"/>
            </g>
            <g id="Group_306" data-name="Group 306">
              <path id="Path_490" data-name="Path 490" d="M867.2,615.051l18.857-18.857a4.1,4.1,0,0,0-5.8-5.8L861.4,609.254a4.1,4.1,0,0,0,5.8,5.8Z" transform="translate(-860.201 -589.197)" fill="#fff"/>
            </g>
          </g>
        </g>
        <g id="Group_312" data-name="Group 312" transform="translate(664.213 1766)">
          <g id="Group_311" data-name="Group 311">
            <g id="Group_309" data-name="Group 309" transform="translate(0 0)">
              <path id="Path_491" data-name="Path 491" d="M886.055,615.051a4.1,4.1,0,0,0,0-5.8L867.2,590.4a4.1,4.1,0,0,0-5.8,5.8l18.857,18.856A4.1,4.1,0,0,0,886.055,615.051Z" transform="translate(-860.201 -589.197)" fill="#fff"/>
            </g>
            <g id="Group_310" data-name="Group 310">
              <path id="Path_492" data-name="Path 492" d="M867.2,615.051l18.857-18.857a4.1,4.1,0,0,0-5.8-5.8L861.4,609.254a4.1,4.1,0,0,0,5.8,5.8Z" transform="translate(-860.201 -589.197)" fill="#fff"/>
            </g>
          </g>
        </g>
        <g id="Group_316" data-name="Group 316" transform="translate(591.945 2282.205)">
          <g id="Group_315" data-name="Group 315">
            <g id="Group_313" data-name="Group 313" transform="translate(0 0)">
              <path id="Path_493" data-name="Path 493" d="M886.055,615.051a4.1,4.1,0,0,0,0-5.8L867.2,590.4a4.1,4.1,0,0,0-5.8,5.8l18.857,18.856A4.1,4.1,0,0,0,886.055,615.051Z" transform="translate(-860.201 -589.197)" fill="#fff"/>
            </g>
            <g id="Group_314" data-name="Group 314">
              <path id="Path_494" data-name="Path 494" d="M867.2,615.051l18.857-18.857a4.1,4.1,0,0,0-5.8-5.8L861.4,609.254a4.1,4.1,0,0,0,5.8,5.8Z" transform="translate(-860.201 -589.197)" fill="#fff"/>
            </g>
          </g>
        </g>
        <ellipse id="Ellipse_70" data-name="Ellipse 70" cx="49.279" cy="49.279" rx="49.279" ry="49.279" transform="translate(1849.226 2264.715) rotate(-152.034)" fill="#fff"/>
        <ellipse id="Ellipse_71" data-name="Ellipse 71" cx="49.279" cy="49.279" rx="49.279" ry="49.279" transform="translate(943.415 2429) rotate(-152.034)" fill="#fff"/>
        <ellipse id="Ellipse_72" data-name="Ellipse 72" cx="49.279" cy="49.279" rx="49.279" ry="49.279" transform="translate(416.415 2108) rotate(-152.034)" fill="#fff"/>
        <ellipse id="Ellipse_73" data-name="Ellipse 73" cx="12.784" cy="12.784" rx="12.784" ry="12.784" transform="translate(1395.296 2257.799) rotate(-152.034)" fill="#fff"/>
        <ellipse id="Ellipse_74" data-name="Ellipse 74" cx="12.784" cy="12.784" rx="12.784" ry="12.784" transform="translate(1630.296 1879.787) rotate(-152.034)" fill="#fff"/>
        <ellipse id="Ellipse_75" data-name="Ellipse 75" cx="12.784" cy="12.784" rx="12.784" ry="12.784" transform="translate(721.296 1968.787) rotate(-152.034)" fill="#fff"/>
        <ellipse id="Ellipse_76" data-name="Ellipse 76" cx="49.279" cy="49.279" rx="49.279" ry="49.279" transform="translate(1343.781 1801) rotate(-152.034)" fill="#fff"/>
      </g>
    </g>
  </g>
</svg>
