<svg id="eTax_New_logo" data-name="eTax New logo" xmlns="http://www.w3.org/2000/svg" width="203.573" height="77.136" viewBox="0 0 203.573 77.136">
  <path id="Path_1" data-name="Path 1" d="M330.291,43.75h-8.965l-9.838,12.107L301.655,43.75H292.69l18.8,23.153L321.326,79h8.965l-14.318-17.63Z" transform="translate(-126.719 -18.941)" fill="#002e6d"/>
  <path id="Path_2" data-name="Path 2" d="M59.592,14.743c20.862-2.694,33.456,5.733,18.667,18.883-16.252,14.449-50.3,24.565-52.033,24.95s-2-1.905,2.4-3.487S42.353,49.107,52.3,43.261C67.814,34.137,71.829,21.321,64.208,19.1c-6.544-1.9-23.7,4.82-37.125,21.548C11.245,60.289,13.5,81.089,37.755,76.49,63.408,71.608,82.79,50.638,84.9,48.2a13.144,13.144,0,0,0,3.317-8.84V0H0V56.825C6.578,39.3,28.024,18.809,59.592,14.743" fill="#e1251b"/>
  <path id="Path_3" data-name="Path 3" d="M203.544,65.862c-3.567,0-5.16-1.593-5.16-5.16V44.535h7.865v-6.98h-7.865V29.69H191.4v7.865H186.68v6.98H191.4V60.7c0,7.939,4.2,12.141,12.141,12.141h4.3v-6.98Z" transform="translate(-80.822 -12.854)" fill="#002e6d"/>
  <path id="Path_4" data-name="Path 4" d="M251.437,43.56H240.431c-7.939,0-12.141,4.2-12.141,12.141v1.134h6.98V55.718c0-3.567,1.593-5.16,5.16-5.16h11.007c3.034,0,4.621,1.134,5.03,3.652l-22.5,5.1c-2.586.567-5.671,2.54-5.671,8.971,0,4.82,2.1,10.564,12.141,10.564h11.007c7.939,0,12.141-4.2,12.141-12.141V55.718c0-7.939-4.2-12.141-12.141-12.141m5.16,17.806v5.342c0,3.572-1.593,5.16-5.16,5.16H240.431c-3.567,0-5.16-1.588-5.16-5.16,0-.181,0-.369.476-.567Z" transform="translate(-98.837 -18.859)" fill="#002e6d"/>
  <path id="Path_5" data-name="Path 5" d="M203.52,66.044c-3.567,0-5.16-1.593-5.16-5.16V44.7h7.859V37.754H198.36V29.9H191.4v7.854H186.69V44.7H191.4V60.884c0,7.939,4.191,12.124,12.124,12.124h4.27V66.044Z" transform="translate(-80.827 -12.945)" fill="#002e6d"/>
  <path id="Path_6" data-name="Path 6" d="M251.327,43.75h-11c-7.939,0-12.124,4.2-12.124,12.129v1.134h6.963V55.879c0-3.572,1.588-5.166,5.16-5.166h11c3.039,0,4.621,1.134,5.035,3.657l-22.512,5.1c-4.667.981-5.671,5.41-5.671,8.954,0,8.721,6.589,10.553,12.124,10.553h11.023c7.939,0,12.124-4.2,12.124-12.124V55.879C263.468,47.946,259.266,43.75,251.327,43.75Zm5.16,23.13c0,3.567-1.593,5.16-5.16,5.16h-11c-3.572,0-5.16-1.593-5.16-5.16,0-.187,0-.38.476-.567l20.845-4.792Z" transform="translate(-98.789 -18.941)" fill="#002e6d"/>
  <path id="Path_7" data-name="Path 7" d="M311.488,84.58,304.4,93.324a9.152,9.152,0,0,1-7.105,3.4h-4.6L302.551,84.6Z" transform="translate(-126.719 -36.618)" fill="#e1251b"/>
</svg>
