<svg xmlns="http://www.w3.org/2000/svg" width="33.907" height="33.907" viewBox="0 0 33.907 33.907">
  <path id="Icon_material-sharp-g-translate" data-name="Icon material-sharp-g-translate" d="M33.516,8.086H18.055L16.563,3H6.391A3.4,3.4,0,0,0,3,6.391V28.43a3.4,3.4,0,0,0,3.391,3.391H18.258l1.7,5.086H33.516a3.4,3.4,0,0,0,3.391-3.391V11.477A3.4,3.4,0,0,0,33.516,8.086ZM11.765,24.344a6.934,6.934,0,0,1,0-13.868,6.7,6.7,0,0,1,4.645,1.814l.119.1-2.085,2-.1-.085a3.682,3.682,0,0,0-2.577-1,4.1,4.1,0,0,0,0,8.205,3.474,3.474,0,0,0,3.594-2.475H11.612V16.41h6.7l.017.119a5.323,5.323,0,0,1,.085,1.034A6.427,6.427,0,0,1,11.765,24.344Zm10.223-2.9a16.923,16.923,0,0,0,2.017,2.882l-.915.9Zm1.305-1.288H21.615l-.526-1.763h6.764a13.022,13.022,0,0,1-2.645,4.645,15.566,15.566,0,0,1-1.916-2.882ZM35.212,33.516a1.7,1.7,0,0,1-1.7,1.7H21.649l3.391-3.391-1.373-4.7,1.56-1.56,4.544,4.56,1.238-1.238-4.594-4.544a14.8,14.8,0,0,0,3.255-5.951h2.153V16.631H25.65V14.867H23.887v1.763H20.564l-2-6.849H33.516a1.7,1.7,0,0,1,1.7,1.7Z" transform="translate(-3 -3)" fill="#002e6d"/>
</svg>
