<svg xmlns="http://www.w3.org/2000/svg" width="72.812" height="55.348" viewBox="0 0 72.812 55.348">
  <g id="team" transform="translate(0 -70.193)">
    <path id="Path_603" data-name="Path 603" d="M371.613,206.011v.863a10.265,10.265,0,0,0,.482,3.111l1.867,5.865h3.523V202.321h-2.349A3.61,3.61,0,0,0,371.613,206.011Z" transform="translate(-318.765 -112.449)" fill="#5a4146"/>
    <path id="Path_604" data-name="Path 604" d="M401.86,201.54l-1.987,7.285-9.4-8.61a2.406,2.406,0,0,1-2.349-2.46h0a3.609,3.609,0,0,1,3.523-3.69h8.221a2.406,2.406,0,0,1,2.349,2.46v2.312A10.272,10.272,0,0,1,401.86,201.54Z" transform="translate(-332.933 -105.423)" fill="#694b4b"/>
    <rect id="Rectangle_2209" data-name="Rectangle 2209" width="7.046" height="5.444" transform="translate(57.544 107.092)" fill="#e6af78"/>
    <path id="Path_605" data-name="Path 605" d="M404.645,320.194a8.929,8.929,0,0,0,7.046,0v-2.259h-7.046v2.259Z" transform="translate(-347.1 -210.844)" fill="#d29b6e"/>
    <path id="Path_606" data-name="Path 606" d="M367.771,339.663l-5.666-1.7-3.523,2.448-3.523-2.449-5.665,1.7a3.67,3.67,0,0,0-2.555,3.548V352.2a1.2,1.2,0,0,0,1.174,1.23h21.139a1.2,1.2,0,0,0,1.174-1.23v-8.992A3.67,3.67,0,0,0,367.771,339.663Z" transform="translate(-297.515 -227.893)" fill="#d5dced"/>
    <path id="Path_607" data-name="Path 607" d="M423.51,367.49h-2.349l.587-13.005h1.174Z" transform="translate(-361.267 -241.949)" fill="#afb9d2"/>
    <path id="Path_608" data-name="Path 608" d="M386.917,248.97h0a7.219,7.219,0,0,1-7.046-7.38v-1.441a2.521,2.521,0,0,1,.688-1.739l2.13-2.23a2.268,2.268,0,0,1,1.7-.723c3.754.124,7.077.966,8.893,2.824a2.489,2.489,0,0,1,.677,1.742v1.567A7.219,7.219,0,0,1,386.917,248.97Z" transform="translate(-325.849 -140.648)" fill="#f0c087"/>
    <path id="Path_609" data-name="Path 609" d="M383.394,240.453a2.394,2.394,0,0,1,2.49-2.456c2.371.158,5.889.573,8.047,1.661a2.423,2.423,0,0,0-.644-1.378c-1.816-1.858-5.139-2.7-8.893-2.824h0a2.268,2.268,0,0,0-1.7.723l-2.129,2.23a2.52,2.52,0,0,0-.688,1.739v1.441a7.337,7.337,0,0,0,5.094,7.086,7.534,7.534,0,0,1-1.571-4.626v-3.6Z" transform="translate(-325.849 -140.648)" fill="#e6af78"/>
    <path id="Path_610" data-name="Path 610" d="M478.968,364.779A3.78,3.78,0,0,1,480,362.17L483.023,359a3.8,3.8,0,0,1,.643,2.11v8.992a1.2,1.2,0,0,1-1.174,1.23h-3.523v-6.557Z" transform="translate(-410.853 -245.796)" fill="#c7cfe2"/>
    <path id="Path_611" data-name="Path 611" d="M422.923,356.944h-1.174a.6.6,0,0,1-.587-.615v-1.845h2.349v1.845A.6.6,0,0,1,422.923,356.944Z" transform="translate(-361.267 -241.949)" fill="#959cb5"/>
    <g id="Group_541" data-name="Group 541" transform="translate(56.246 109.098)">
      <path id="Path_612" data-name="Path 612" d="M400.334,334.836l-1.991,1.592a.687.687,0,0,1-1.046-.232l-1.786-3.415.719-1.148a.457.457,0,0,1,.712-.091Z" transform="translate(-395.512 -331.411)" fill="#c7cfe2"/>
      <path id="Path_613" data-name="Path 613" d="M429.419,334.837l1.991,1.592a.687.687,0,0,0,1.046-.232l1.786-3.415-.719-1.148a.457.457,0,0,0-.712-.091Z" transform="translate(-424.597 -331.411)" fill="#c7cfe2"/>
    </g>
    <path id="Path_614" data-name="Path 614" d="M22.788,216.037a46.231,46.231,0,0,1-1.971-10.065c-.327-4.743-3.74-8.61-8.354-8.61s-8.027,3.867-8.354,8.61a46.233,46.233,0,0,1-1.971,10.065,1.247,1.247,0,0,0,.611,1.565,21.693,21.693,0,0,0,6.134,1.9h7.16a21.881,21.881,0,0,0,6.134-1.9A1.247,1.247,0,0,0,22.788,216.037Z" transform="translate(-1.766 -108.229)" fill="#5a4146"/>
    <path id="Path_615" data-name="Path 615" d="M63.81,217.6a1.247,1.247,0,0,0,.611-1.565,46.231,46.231,0,0,1-1.971-10.065c-.327-4.743-3.74-8.61-8.354-8.61h-.035c-3.54.015-4.791,5.071-1.744,6.958a3.2,3.2,0,0,0,.3.168L55.288,219.5h2.389A21.9,21.9,0,0,0,63.81,217.6Z" transform="translate(-43.4 -108.23)" fill="#694b4b"/>
    <path id="Path_616" data-name="Path 616" d="M19.191,317.558l-3.8-1.99a2.474,2.474,0,0,1-1.3-2.2v-3.69H7.046v3.69a2.474,2.474,0,0,1-1.3,2.2l-3.8,1.99A3.711,3.711,0,0,0,0,320.858v7.269a1.2,1.2,0,0,0,1.174,1.23h18.79a1.2,1.2,0,0,0,1.174-1.23v-7.268A3.711,3.711,0,0,0,19.191,317.558Z" transform="translate(0 -203.816)" fill="#e6af78"/>
    <path id="Path_617" data-name="Path 617" d="M52.689,314.6a8.922,8.922,0,0,0,3.586-.759,2.532,2.532,0,0,1-.063-.471v-3.69H49.165v3.69a2.529,2.529,0,0,1-.063.473A8.966,8.966,0,0,0,52.689,314.6Z" transform="translate(-42.119 -203.816)" fill="#d29b6e"/>
    <path id="Path_618" data-name="Path 618" d="M19.191,354.486l-2.707-1.418a6.965,6.965,0,0,1-5.914,3.377,6.965,6.965,0,0,1-5.915-3.377l-2.707,1.418A3.711,3.711,0,0,0,0,357.786v7.269a1.2,1.2,0,0,0,1.174,1.23h18.79a1.2,1.2,0,0,0,1.174-1.23v-7.268A3.711,3.711,0,0,0,19.191,354.486Z" transform="translate(0 -240.744)" fill="#d5dced"/>
    <path id="Path_619" data-name="Path 619" d="M32.111,257.065h0a7.168,7.168,0,0,1-6.988-6.424,1.257,1.257,0,0,1,.628-1.279,9.784,9.784,0,0,0,2.079-1.47,7.087,7.087,0,0,0,1.607-2.214A1.148,1.148,0,0,1,30.76,245a19.959,19.959,0,0,1,7.971,4.277,1.216,1.216,0,0,1,.4.989A7.188,7.188,0,0,1,32.111,257.065Z" transform="translate(-21.541 -148.743)" fill="#f0c087"/>
    <path id="Path_620" data-name="Path 620" d="M38.732,249.279A19.958,19.958,0,0,0,30.76,245a1.148,1.148,0,0,0-1.324.674,7.068,7.068,0,0,1-1.073,1.641v0a6.467,6.467,0,0,1-.533.57,9.78,9.78,0,0,1-2.079,1.47,1.257,1.257,0,0,0-.628,1.279,7.241,7.241,0,0,0,5.92,6.34,5.448,5.448,0,0,1-2.455-4.835V250.39c.267-.206.535-.412.805-.664a9.693,9.693,0,0,0,1.68-2.075,17.54,17.54,0,0,1,6.121,3.488c.223.2.775.738,1.421,1.372a7.609,7.609,0,0,0,.521-2.243A1.217,1.217,0,0,0,38.732,249.279Z" transform="translate(-21.542 -148.743)" fill="#e6af78"/>
    <path id="Path_621" data-name="Path 621" d="M.716,369.859A3.8,3.8,0,0,0,0,372.076v7.269a1.2,1.2,0,0,0,1.174,1.23H4.7v-6.2a2.505,2.505,0,0,0-.882-1.921Z" transform="translate(0 -255.034)" fill="#c7cfe2"/>
    <path id="Path_622" data-name="Path 622" d="M152.45,329.934l-9.826-3.742-7.046,2.46-7.046-2.46-9.826,3.742a4.914,4.914,0,0,0-3.092,4.624v7.624a1.2,1.2,0,0,0,1.174,1.23h37.581a1.2,1.2,0,0,0,1.174-1.23v-7.624A4.914,4.914,0,0,0,152.45,329.934Z" transform="translate(-99.172 -217.871)" fill="#589efe"/>
    <path id="Path_623" data-name="Path 623" d="M240.6,359.226l-1.118,12.3h4.7l-1.118-12.3Z" transform="translate(-205.427 -245.985)" fill="#e1251b"/>
    <path id="Path_624" data-name="Path 624" d="M244.837,346.859h-2.466a.842.842,0,0,1-.822-.861v-3.289h4.11V346A.842.842,0,0,1,244.837,346.859Z" transform="translate(-207.198 -231.928)" fill="#ac150d"/>
    <path id="Path_625" data-name="Path 625" d="M352.621,359.855a5.042,5.042,0,0,1,1.264,3.352v7.624a1.2,1.2,0,0,1-1.174,1.23h-5.872v-4.112a5.04,5.04,0,0,1,1.376-3.479Z" transform="translate(-297.514 -246.52)" fill="#002e6d"/>
    <path id="Path_626" data-name="Path 626" d="M191,82.956v-10.3a2.406,2.406,0,0,0-2.349-2.46H174.556a9.625,9.625,0,0,0-9.4,9.84v2.924a12.829,12.829,0,0,0,.6,3.889l.391,1.228a3.849,3.849,0,0,1,.181,1.167v.631h23.488v-.631A3.849,3.849,0,0,1,190,88.074l.391-1.228A12.827,12.827,0,0,0,191,82.956Z" transform="translate(-141.673)" fill="#5a4146"/>
    <path id="Path_627" data-name="Path 627" d="M206.452,75.19a4.888,4.888,0,0,0,4.771,5h.661l.319,9.686h13.04v-.631a3.849,3.849,0,0,1,.181-1.167l.391-1.228a12.829,12.829,0,0,0,.6-3.889v-10.3a2.406,2.406,0,0,0-2.349-2.46H211.223A4.888,4.888,0,0,0,206.452,75.19Z" transform="translate(-177.092)" fill="#694b4b"/>
    <rect id="Rectangle_2210" data-name="Rectangle 2210" width="14.093" height="11.069" transform="translate(29.36 99.712)" fill="#e6af78"/>
    <path id="Path_628" data-name="Path 628" d="M206.451,272.545a13.466,13.466,0,0,0,14.093,0v-4.159H206.451v4.159Z" transform="translate(-177.091 -168.674)" fill="#d29b6e"/>
    <g id="Group_542" data-name="Group 542" transform="translate(27.011 106.273)">
      <path id="Path_629" data-name="Path 629" d="M199.331,316.951l-3.746,3.923a1.14,1.14,0,0,1-1.766-.126l-3.884-5.359,1.016-2.242a1.149,1.149,0,0,1,1.677-.52Z" transform="translate(-189.936 -312.443)" fill="#002e6d"/>
      <path id="Path_630" data-name="Path 630" d="M256,316.951l3.746,3.923a1.14,1.14,0,0,0,1.766-.126l3.884-5.359-1.016-2.242a1.149,1.149,0,0,0-1.677-.52Z" transform="translate(-246.605 -312.443)" fill="#002e6d"/>
    </g>
    <path id="Path_631" data-name="Path 631" d="M185.163,160.382h0a12.031,12.031,0,0,1-11.744-12.3v-1.441a2.521,2.521,0,0,1,.688-1.739l.973-1.019a2.52,2.52,0,0,0,.688-1.739v-2.948a1.211,1.211,0,0,1,.894-1.2c2.778-.687,11.421-2.315,17.3,2.216a1.606,1.606,0,0,1,.593,1.274v.653a2.521,2.521,0,0,0,.688,1.739l.973,1.019a2.52,2.52,0,0,1,.688,1.739v1.441A12.031,12.031,0,0,1,185.163,160.382Z" transform="translate(-148.757 -56.98)" fill="#f0c087"/>
    <path id="Path_632" data-name="Path 632" d="M193.965,140.229c-4.137-3.187-9.632-3.324-13.5-2.888a30.374,30.374,0,0,0-3.8.672,1.211,1.211,0,0,0-.894,1.2v2.948a2.52,2.52,0,0,1-.688,1.74l-.973,1.019a2.52,2.52,0,0,0-.688,1.74v1.441a12.11,12.11,0,0,0,10.325,12.2,12.558,12.558,0,0,1-3.279-8.511v-8.99a2.425,2.425,0,0,1,2.066-2.443c2.818-.37,7.98-.593,12.027,1.8V141.5A1.605,1.605,0,0,0,193.965,140.229Z" transform="translate(-148.757 -56.993)" fill="#e6af78"/>
    <path id="Path_633" data-name="Path 633" d="M116.877,359.855a5.042,5.042,0,0,0-1.264,3.352v7.624a1.2,1.2,0,0,0,1.174,1.23h5.872v-4.112a5.04,5.04,0,0,0-1.376-3.479Z" transform="translate(-99.171 -246.52)" fill="#002e6d"/>
  </g>
</svg>
